<svg version="1.1" xmlns="http://www.w3.org/2000/svg" xmlns:xlink="http://www.w3.org/1999/xlink" width="123.36694" height="97.20226" viewBox="0,0,123.36694,97.20226"><g transform="translate(1.14169,1.03411)"><g data-paper-data="{&quot;isPaintingLayer&quot;:true}" fill-rule="nonzero" stroke-linejoin="miter" stroke-miterlimit="10" stroke-dasharray="" stroke-dashoffset="0" style="mix-blend-mode: normal"><path d="M-1.14169,33.23744v-34.27155h77.02613v34.27156z" fill="#000000" stroke="none" stroke-width="NaN" stroke-linecap="butt"/><g stroke-width="0.5"><path d="M34.34111,52.06258c0,1.38741 -1.14341,2.51214 -2.55387,2.51214c-1.41047,0 -2.55387,-1.12473 -2.55387,-2.51214c0,-1.38741 1.14341,-2.51214 2.55387,-2.51214c1.41046,0 2.55387,1.12472 2.55387,2.51214z" fill="#616472" stroke="#ffffff" stroke-linecap="butt"/><g fill="none" stroke="#ff0000"><path d="M33.61437,52.0808c0,0.98922 -0.81525,1.79113 -1.82089,1.79113c-1.00565,0 -1.82088,-0.80192 -1.82088,-1.79113c0,-0.98922 0.81523,-1.79113 1.82088,-1.79113c1.00564,0 1.82089,0.80192 1.82089,1.79113z" stroke-linecap="butt"/><path d="M33.5673,52.10209l-3.52609,-0.04463" stroke-linecap="round"/><path d="M31.79704,50.31421l0.00964,3.52636" stroke-linecap="round"/></g></g><path d="M62.30143,20.57843c0,1.38741 -1.14341,2.51214 -2.55387,2.51214c-1.41047,0 -2.55387,-1.12473 -2.55387,-2.51214c0,-1.38741 1.14341,-2.51214 2.55387,-2.51214c1.41046,0 2.55387,1.12472 2.55387,2.51214z" fill="#616472" stroke="#ffffff" stroke-width="0.5" stroke-linecap="butt"/><text transform="translate(3.68327,11.84522) scale(0.19426,0.22598)" font-size="40" xml:space="preserve" fill="#f0f237" fill-rule="nonzero" stroke="none" stroke-width="1" stroke-linecap="butt" stroke-linejoin="miter" stroke-miterlimit="10" stroke-dasharray="" stroke-dashoffset="0" font-family="Pixel" font-weight="normal" text-anchor="start" style="mix-blend-mode: normal"><tspan x="0" dy="0">SIZE OF TITLE</tspan></text><text transform="translate(2.73089,23.22803) scale(0.1461,0.1461)" font-size="40" xml:space="preserve" fill="#f0f237" fill-rule="nonzero" stroke="none" stroke-width="1" stroke-linecap="butt" stroke-linejoin="miter" stroke-miterlimit="10" stroke-dasharray="" stroke-dashoffset="0" font-family="Pixel" font-weight="normal" text-anchor="start" style="mix-blend-mode: normal"><tspan x="0" dy="0">Size of Font</tspan></text><path d="M22.14434,67.45785z" fill="#000000" stroke="none" stroke-width="0" stroke-linecap="butt"/><g stroke-linecap="butt"><path d="M17.87286,46.72131c0,1.38741 -1.14341,2.51214 -2.55387,2.51214c-1.41047,0 -2.55387,-1.12473 -2.55387,-2.51214c0,-1.38741 1.14341,-2.51214 2.55387,-2.51214c1.41046,0 2.55387,1.12472 2.55387,2.51214z" fill="#616472" stroke="#ffffff" stroke-width="0.5"/><g stroke-width="0"><path d="M17.26405,46.75128c0.2834,0.17492 -1.11694,0.73517 -1.88337,0.73517c-0.76643,0 -2.23052,-0.46273 -1.99901,-0.70213c0.5617,-0.58084 1.23258,-0.66909 1.99901,-0.66909c0.76643,0 1.15645,0.18737 1.88337,0.63605z" fill="#ffffff" stroke="#000000"/><path d="M15.32924,47.45341c-0.39234,0 -0.71039,-0.29217 -0.71039,-0.65257c0,-0.36041 0.31806,-0.65257 0.71039,-0.65257c0.39234,0 0.71039,0.29216 0.71039,0.65257c0,0.36041 -0.31805,0.65257 -0.71039,0.65257z" fill="#000000" stroke="none"/></g></g><g stroke-linecap="butt"><path d="M24.89668,56.6737c0,1.38741 -1.14341,2.51214 -2.55387,2.51214c-1.41047,0 -2.55387,-1.12473 -2.55387,-2.51214c0,-1.38741 1.14341,-2.51214 2.55387,-2.51214c1.41046,0 2.55387,1.12472 2.55387,2.51214z" fill="#616472" stroke="#ffffff" stroke-width="0.5"/><g fill="#00f2ff" stroke="#000000" stroke-width="0"><g><path d="M22.73393,56.80996l-1.39669,1.36885l-0.44934,-0.36479l1.39669,-1.36885z"/><path d="M23.35949,58.21334l-1.44071,-1.41559l0.43792,-0.42511l1.44071,1.41559z" data-paper-data="{&quot;index&quot;:null}"/></g><g><path d="M22.66573,55.40442l-1.39669,1.36885l-0.44934,-0.36479l1.39669,-1.36885z"/><path d="M23.29128,56.80781l-1.4407,-1.41559l0.43792,-0.42511l1.4407,1.41559z" data-paper-data="{&quot;index&quot;:null}"/></g></g></g><g stroke-linecap="butt"><path d="M57.38476,43.6399c0,1.38741 -1.14341,2.51214 -2.55387,2.51214c-1.41047,0 -2.55387,-1.12473 -2.55387,-2.51214c0,-1.38741 1.14341,-2.51214 2.55387,-2.51214c1.41046,0 2.55387,1.12472 2.55387,2.51214z" fill="#000000" stroke="#ffffff" stroke-width="0.5"/><g stroke="none" stroke-width="0"><g><path d="M55.08029,43.70419c-0.03558,-0.12326 -0.02137,-0.25302 0.09628,-0.31102c0.46905,-0.23123 0.28679,-0.17132 0.53691,-0.24353c0.23852,-0.06886 0.20855,-0.30212 0.45063,-0.35719c0.08655,-0.01969 0.21659,0.00162 0.2917,0.13899c0.18232,0.33349 0.16231,0.26833 0.1329,0.42403c-0.0475,0.25158 -0.0578,0.22207 -0.22772,0.33986c-0.32305,0.22392 -0.22287,0.18163 -0.34287,0.20941c-0.20181,0.04672 -0.47455,0.1321 -0.64493,0.09959c-0.18649,-0.03559 -0.2628,-0.19589 -0.2929,-0.30014z" data-paper-data="{&quot;index&quot;:null}" fill="#72727f"/><path d="M55.33185,43.67042c-0.02534,-0.08777 -0.01522,-0.18017 0.06856,-0.22148c0.33401,-0.16466 0.20423,-0.122 0.38234,-0.17342c0.16985,-0.04903 0.14851,-0.21514 0.32089,-0.25435c0.06163,-0.01402 0.15424,0.00115 0.20772,0.09898c0.12983,0.23747 0.11557,0.19107 0.09464,0.30195c-0.03382,0.17915 -0.04115,0.15814 -0.16216,0.24201c-0.23005,0.15945 -0.15871,0.12934 -0.24416,0.14912c-0.14371,0.03327 -0.33793,0.09407 -0.45925,0.07092c-0.13279,-0.02534 -0.18714,-0.13949 -0.20857,-0.21373z" data-paper-data="{&quot;index&quot;:null}" fill="#fcfc12"/><path d="M55.61721,43.514c-0.0844,-0.03389 0.15379,-0.19155 0.23073,-0.21774c0.07338,-0.02497 0.08754,-0.11193 0.16209,-0.13314c0.0888,-0.02527 0.13216,0.08452 0.11659,0.16688c-0.01348,0.07129 -0.0168,0.06331 -0.06875,0.10027c-0.09876,0.07025 -0.06801,0.05604 -0.10496,0.06669c-0.06214,0.01791 -0.14602,0.04832 -0.19882,0.04338c-0.0578,-0.00541 -0.13687,-0.02633 -0.13687,-0.02633z" data-paper-data="{&quot;index&quot;:null}" fill="#000000"/></g><g data-paper-data="{&quot;index&quot;:null}"><path d="M54.18671,44.046c-0.17038,0.03251 -0.44312,-0.05287 -0.64493,-0.09958c-0.12,-0.02778 -0.01982,0.01451 -0.34287,-0.20941c-0.16992,-0.11778 -0.18023,-0.08828 -0.22772,-0.33985c-0.0294,-0.15571 -0.04941,-0.09055 0.13291,-0.42403c0.07511,-0.13737 0.20514,-0.15868 0.29169,-0.139c0.24208,0.05507 0.21211,0.28833 0.45063,0.35719c0.25012,0.0722 0.06786,0.0123 0.53691,0.24353c0.11765,0.05799 0.13187,0.18776 0.09628,0.31101c-0.0301,0.10426 -0.10641,0.26456 -0.2929,0.30015z" data-paper-data="{&quot;index&quot;:null}" fill="#72727f"/><path d="M54.01947,43.92581c-0.12132,0.02315 -0.31554,-0.03764 -0.45925,-0.07091c-0.08545,-0.01978 -0.01412,0.01033 -0.24416,-0.14912c-0.121,-0.08387 -0.12833,-0.06287 -0.16216,-0.24201c-0.02094,-0.11088 -0.03519,-0.06448 0.09464,-0.30195c0.05348,-0.09783 0.14608,-0.11299 0.20772,-0.09897c0.17238,0.03921 0.15105,0.20531 0.3209,0.25435c0.17811,0.05141 0.04832,0.00876 0.38233,0.17342c0.08378,0.04131 0.0939,0.1337 0.06856,0.22147c-0.02143,0.07424 -0.07578,0.18839 -0.20858,0.21373z" data-paper-data="{&quot;index&quot;:null}" fill="#fcfc12"/><path d="M53.80582,43.582c-0.0528,0.00494 -0.13668,-0.02547 -0.19882,-0.04338c-0.03695,-0.01065 -0.00619,0.00357 -0.10495,-0.06669c-0.05195,-0.03695 -0.05527,-0.02898 -0.06875,-0.10027c-0.01557,-0.08235 0.02778,-0.19215 0.11659,-0.16688c0.07455,0.02122 0.0887,0.10818 0.16208,0.13315c0.07695,0.02619 0.31514,0.18385 0.23074,0.21774c0,0 -0.07908,0.02092 -0.13688,0.02633z" data-paper-data="{&quot;index&quot;:null}" fill="#000000"/></g></g></g><g stroke-linecap="butt"><path d="M43.54037,58.58008z" fill="#000000" stroke="none" stroke-width="0"/><path d="M47.82143,54.62129c0,1.38741 -1.14341,2.51214 -2.55387,2.51214c-1.41047,0 -2.55387,-1.12473 -2.55387,-2.51214c0,-1.38741 1.14341,-2.51214 2.55387,-2.51214c1.41046,0 2.55387,1.12472 2.55387,2.51214z" fill="#000000" stroke="#ffffff" stroke-width="0.5"/><g stroke="none" stroke-width="0"><path d="M47.09617,55.42008c-0.02224,0.14397 -0.91566,-0.25591 -1.01921,-0.15472c-0.09893,0.09668 0.16507,0.95456 0.01315,1.00912c-0.12917,0.04638 -0.43906,-0.78611 -0.59133,-0.781c-0.09661,0.00325 -0.33864,0.80991 -0.44009,0.79423c-0.13466,-0.0208 -0.0813,-0.75017 -0.19761,-0.79522c-0.13411,-0.05195 -0.7982,0.48323 -0.8971,0.39792c-0.11004,-0.09492 0.44827,-0.78738 0.39381,-0.90475c-0.05788,-0.12474 -1.11609,-0.60262 -1.09535,-0.73689c0.01803,-0.11672 1.10274,0.14057 1.17625,0.04813c0.0986,-0.12399 -0.17762,-1.32173 -0.00756,-1.38736c0.12303,-0.04748 0.48618,1.09842 0.63196,1.08908c0.11086,-0.0071 0.43196,-1.11157 0.54972,-1.09337c0.14206,0.02195 0.2822,1.1322 0.40293,1.18558c0.14482,0.06402 0.83177,-0.61379 0.93393,-0.5165c0.10167,0.09682 -0.63212,1.0651 -0.58562,1.18196c0.04503,0.11315 0.75067,0.54371 0.73211,0.6638z" fill="#ff5402"/><path d="M46.63941,55.14664c-0.01609,0.07832 -0.66218,-0.13922 -0.73706,-0.08417c-0.07154,0.05259 0.11937,0.51931 0.00951,0.54899c-0.09341,0.02523 -0.31752,-0.42767 -0.42763,-0.42489c-0.06986,0.00177 -0.2449,0.44062 -0.31826,0.43209c-0.09738,-0.01132 -0.05879,-0.40811 -0.1429,-0.43263c-0.09698,-0.02826 -0.57723,0.26289 -0.64875,0.21648c-0.07958,-0.05164 0.32418,-0.42836 0.28479,-0.49221c-0.04185,-0.06786 -0.80712,-0.32785 -0.79212,-0.40089c0.01304,-0.0635 0.79746,0.07647 0.85062,0.02618c0.0713,-0.06746 -0.12845,-0.71906 -0.00547,-0.75477c0.08897,-0.02583 0.35159,0.59758 0.45701,0.59249c0.08017,-0.00387 0.31238,-0.60473 0.39754,-0.59483c0.10273,0.01194 0.20408,0.61595 0.29139,0.64499c0.10473,0.03483 0.60151,-0.33392 0.67539,-0.281c0.07352,0.05267 -0.45713,0.57945 -0.4235,0.64303c0.03256,0.06156 0.54286,0.29579 0.52944,0.36112z" fill="#ff0303"/></g></g><path d="M54.50646,64.8016z" fill="#000000" stroke="none" stroke-width="0" stroke-linecap="butt"/><path d="M54.66919,64.8016z" fill="#000000" stroke="none" stroke-width="0" stroke-linecap="butt"/><path d="M60.97076,58.89127c0,1.38741 -1.14341,2.51214 -2.55387,2.51214c-1.41047,0 -2.55387,-1.12473 -2.55387,-2.51214c0,-1.38741 1.14341,-2.51214 2.55387,-2.51214c1.41046,0 2.55387,1.12472 2.55387,2.51214z" fill="#616472" stroke="#ffffff" stroke-width="0.5" stroke-linecap="butt"/><g stroke-width="0" stroke-linecap="butt"><path d="M56.94449,57.5494c0,0 0.97784,0.20255 1.46124,0.20255c0.47618,0 1.41784,-0.20255 1.41784,-0.20255v1.93043c0,0 -1.01401,1.09334 -1.49018,1.09334c-0.48341,0 -1.38891,-1.09334 -1.38891,-1.09334z" fill="#2aa9ff" stroke="#616161"/><g fill="#616161" stroke="#828282"><path d="M57.06024,58.48338v-0.60122l1.20565,0.26524v0.68963z" data-paper-data="{&quot;index&quot;:null}"/><path d="M57.06024,59.42379v-0.60122l1.24905,0.26524v0.68963z" data-paper-data="{&quot;index&quot;:null}"/><path d="M58.49255,58.82257v-0.68963l1.22011,-0.26524v0.60122z" data-paper-data="{&quot;index&quot;:null}"/><path d="M58.50702,59.77744v-0.68963l1.20565,-0.26524v0.60122z" data-paper-data="{&quot;index&quot;:null}"/></g></g><g stroke-linecap="butt"><path d="M69.59706,49.57043c0,1.38741 -1.14341,2.51214 -2.55387,2.51214c-1.41047,0 -2.55387,-1.12473 -2.55387,-2.51214c0,-1.38741 1.14341,-2.51214 2.55387,-2.51214c1.41046,0 2.55387,1.12472 2.55387,2.51214z" fill="#616472" stroke="#ffffff" stroke-width="0.5"/><g stroke-width="0"><path d="M65.5708,48.22857c0,0 0.97784,0.20255 1.46125,0.20255c0.47617,0 1.41784,-0.20255 1.41784,-0.20255v1.93042c0,0 -1.01401,1.09334 -1.49018,1.09334c-0.48341,0 -1.38891,-1.09334 -1.38891,-1.09334z" fill="#fcfc12" stroke="#616161"/><g fill="#616161" stroke="#828282"><path d="M65.68653,49.16254v-0.60122l1.20565,0.26525v0.68963z" data-paper-data="{&quot;index&quot;:null}"/><path d="M65.68653,50.10295v-0.60122l1.24905,0.26525v0.68963z" data-paper-data="{&quot;index&quot;:null}"/><path d="M67.11884,49.50173v-0.68963l1.22011,-0.26525v0.60122z" data-paper-data="{&quot;index&quot;:null}"/><path d="M67.13332,50.45661v-0.68963l1.20565,-0.26525v0.60122z" data-paper-data="{&quot;index&quot;:null}"/></g></g></g><path d="M66.5556,58.28278z" fill="#000000" stroke="none" stroke-width="0" stroke-linecap="butt"/><path d="M66.78774,58.28278z" fill="#000000" stroke="none" stroke-width="0" stroke-linecap="butt"/><g stroke-width="0.5"><path d="M81.74585,52.91176c0,1.38741 -1.14341,2.51214 -2.55387,2.51214c-1.41047,0 -2.55387,-1.12473 -2.55387,-2.51214c0,-1.38741 1.14341,-2.51214 2.55387,-2.51214c1.41046,0 2.55387,1.12472 2.55387,2.51214z" fill="#ffffff" stroke="#ffffff" stroke-linecap="butt"/><g><g fill="#000000" stroke="#000000" stroke-linecap="butt"><path d="M79.46961,51.85124c0,0.21511 -0.13099,0.38948 -0.29259,0.38948c-0.1616,0 -0.2926,-0.17437 -0.2926,-0.38948c0,-0.21511 0.131,-0.38948 0.2926,-0.38948c0.1616,0 0.29259,0.17437 0.29259,0.38948z"/><path d="M78.81501,52.85865l0.75158,-0.00922l-0.38164,1.3094z"/></g><g fill="none" stroke="#ff0000" stroke-linecap="round"><path d="M80.28865,54.21474l-2.21151,-2.21151"/><path d="M80.31738,51.97451l-2.21152,2.21151" data-paper-data="{&quot;index&quot;:null}"/></g></g></g><g stroke-width="0.5" stroke-linecap="butt"><path d="M78.88966,47.40196c0,1.38741 -1.14341,2.51214 -2.55387,2.51214c-1.41047,0 -2.55387,-1.12473 -2.55387,-2.51214c0,-1.38741 1.14341,-2.51214 2.55387,-2.51214c1.41046,0 2.55387,1.12472 2.55387,2.51214z" fill="#ffffff" stroke="#ffffff"/><g fill="#000000" stroke="#000000"><path d="M76.46961,46.35124c0,0.21511 -0.13099,0.38948 -0.29259,0.38948c-0.1616,0 -0.2926,-0.17437 -0.2926,-0.38948c0,-0.21511 0.131,-0.38948 0.2926,-0.38948c0.1616,0 0.29259,0.17437 0.29259,0.38948z"/><path d="M75.81501,47.35865l0.75158,-0.00922l-0.38164,1.3094z"/></g></g><path d="M29.42642,44.20342c0,1.38741 -1.14341,2.51214 -2.55387,2.51214c-1.41047,0 -2.55387,-1.12473 -2.55387,-2.51214c0,-1.38741 1.14341,-2.51214 2.55387,-2.51214c1.41046,0 2.55387,1.12472 2.55387,2.51214z" fill="#616472" stroke="#ffffff" stroke-width="0.5" stroke-linecap="butt"/><path d="M65.76916,60.40897z" fill="#000000" stroke="none" stroke-width="0" stroke-linecap="butt"/><g stroke-linecap="butt"><path d="M63.82656,66.69164c0,1.38741 -1.14341,2.51214 -2.55387,2.51214c-1.41047,0 -2.55387,-1.12473 -2.55387,-2.51214c0,-1.38741 1.14341,-2.51214 2.55387,-2.51214c1.41046,0 2.55387,1.12472 2.55387,2.51214z" fill="#ff0000" stroke="#ffffff" stroke-width="0.5"/><g fill="#fbff00" stroke="none" stroke-width="0"><g><path d="M59.54186,65.81248l0.27647,-0.27617l1.19364,1.12977l-0.27647,0.27617z"/><path d="M59.85131,67.83155l-0.28133,-0.2716l1.17342,-1.14917l0.28133,0.2716z" data-paper-data="{&quot;index&quot;:null}"/></g><g><path d="M60.61972,65.82264l0.27647,-0.27617l1.19364,1.12977l-0.27647,0.27617z"/><path d="M60.92917,67.84171l-0.28133,-0.2716l1.17341,-1.14917l0.28133,0.2716z" data-paper-data="{&quot;index&quot;:null}"/></g><g><path d="M61.74965,65.80676l0.27647,-0.27617l1.19364,1.12977l-0.27647,0.27617z"/><path d="M62.0591,67.82582l-0.28133,-0.2716l1.17341,-1.14917l0.28133,0.2716z" data-paper-data="{&quot;index&quot;:null}"/></g></g></g><g stroke-linecap="butt"><path d="M72.70156,66.56664c0,1.38741 -1.14341,2.51214 -2.55387,2.51214c-1.41047,0 -2.55387,-1.12473 -2.55387,-2.51214c0,-1.38741 1.14341,-2.51214 2.55387,-2.51214c1.41046,0 2.55387,1.12472 2.55387,2.51214z" fill="#ff0000" stroke="#ffffff" stroke-width="0.5"/><g stroke="none" stroke-width="0"><g fill="#000000"><path d="M68.18275,66.73882v-0.2889h1.53571v0.2889z"/><path d="M68.81264,65.82532l0.28889,0.00244l-0.01295,1.53566l-0.28889,-0.00244z"/></g><g fill="#fbff00"><g><path d="M69.49472,65.69764l0.27647,-0.27617l1.19364,1.12977l-0.27647,0.27617z"/><path d="M69.80417,67.71671l-0.28133,-0.2716l1.17341,-1.14917l0.28133,0.2716z" data-paper-data="{&quot;index&quot;:null}"/></g><g><path d="M70.62465,65.68176l0.27647,-0.27617l1.19364,1.12977l-0.27647,0.27617z"/><path d="M70.93411,67.70082l-0.28133,-0.2716l1.17341,-1.14917l0.28133,0.2716z" data-paper-data="{&quot;index&quot;:null}"/></g></g></g></g><g stroke-linecap="butt"><path d="M63.5446,74.01496c0,1.38741 -1.14341,2.51214 -2.55387,2.51214c-1.41047,0 -2.55387,-1.12473 -2.55387,-2.51214c0,-1.38741 1.14341,-2.51214 2.55387,-2.51214c1.41046,0 2.55387,1.12472 2.55387,2.51214z" fill="#fbff00" stroke="#ffffff" stroke-width="0.5"/><g fill="#ff0000" stroke="none" stroke-width="0"><g><path d="M59.2599,73.13577l0.27647,-0.27617l1.19364,1.12977l-0.27647,0.27617z"/><path d="M59.56935,75.15487l-0.28133,-0.2716l1.17342,-1.14917l0.28133,0.2716z" data-paper-data="{&quot;index&quot;:null}"/></g><g><path d="M60.33776,73.14593l0.27647,-0.27617l1.19364,1.12977l-0.27647,0.27617z"/><path d="M60.64721,75.165l-0.28133,-0.2716l1.17341,-1.14917l0.28133,0.2716z" data-paper-data="{&quot;index&quot;:null}"/></g><g><path d="M61.46769,73.13006l0.27647,-0.27617l1.19364,1.12977l-0.27647,0.27617z"/><path d="M61.77714,75.14911l-0.28133,-0.2716l1.17341,-1.14917l0.28133,0.2716z" data-paper-data="{&quot;index&quot;:null}"/></g></g></g><g stroke-linecap="butt"><path d="M72.85944,74.14557c0,1.38741 -1.14341,2.51214 -2.55387,2.51214c-1.41047,0 -2.55387,-1.12473 -2.55387,-2.51214c0,-1.38741 1.14341,-2.51214 2.55387,-2.51214c1.41046,0 2.55387,1.12472 2.55387,2.51214z" fill="#fbff00" stroke="#ffffff" stroke-width="0.5"/><g stroke="none" stroke-width="0"><g fill="#000000"><path d="M68.34063,74.31776v-0.2889h1.53571v0.2889z"/><path d="M68.97051,73.40426l0.28889,0.00244l-0.01295,1.53566l-0.28889,-0.00244z"/></g><g fill="#ff0000"><g><path d="M69.6526,73.27657l0.27647,-0.27617l1.19364,1.12977l-0.27647,0.27617z"/><path d="M69.96205,75.29564l-0.28133,-0.2716l1.17341,-1.14917l0.28133,0.2716z" data-paper-data="{&quot;index&quot;:null}"/></g><g><path d="M70.78254,73.26068l0.27647,-0.27617l1.19364,1.12977l-0.27647,0.27617z"/><path d="M71.092,75.27975l-0.28133,-0.2716l1.17341,-1.14917l0.28133,0.2716z" data-paper-data="{&quot;index&quot;:null}"/></g></g></g></g><g stroke-linecap="butt"><path d="M82.06573,74.21201c0,1.38741 -1.14341,2.51214 -2.55387,2.51214c-1.41047,0 -2.55387,-1.12473 -2.55387,-2.51214c0,-1.38741 1.14341,-2.51214 2.55387,-2.51214c1.41046,0 2.55387,1.12472 2.55387,2.51214z" fill="#009c0d" stroke="#ffffff" stroke-width="0.5"/><g fill="#000000" stroke="none" stroke-width="0"><path d="M79.00194,73.1851l0.49862,-0.82804l0.50858,0.82804z"/><g><path d="M78.33929,74.48201v-0.43965h2.33706v0.43965z"/><path d="M79.27923,73.09533l0.43964,-0.00329l0.01752,2.337l-0.43964,0.00329z"/></g><path d="M77.54573,74.24595l0.81982,-0.50062v1.04995z" data-paper-data="{&quot;index&quot;:null}"/><path d="M80.59228,74.79528v-1.04995l0.81982,0.50062z" data-paper-data="{&quot;index&quot;:null}"/><path d="M80.02579,75.40361l-0.50858,0.82804l-0.49862,-0.82804z" data-paper-data="{&quot;index&quot;:null}"/></g></g><path d="M42.78037,67.70006z" fill="#000000" stroke="none" stroke-width="0" stroke-linecap="butt"/><g stroke-linecap="butt"><path d="M43.45854,65.46129c0,1.38741 -1.14341,2.51214 -2.55387,2.51214c-1.41047,0 -2.55387,-1.12473 -2.55387,-2.51214c0,-1.38741 1.14341,-2.51214 2.55387,-2.51214c1.41046,0 2.55387,1.12472 2.55387,2.51214z" fill="#000000" stroke="#ffffff" stroke-width="0.5"/><g stroke-width="0"><path d="M40.85314,67.28785c-0.59728,-0.05808 -0.8924,-0.56664 -0.83049,-1.20335c0.03469,-0.35671 0.30068,-1.21564 0.44549,-1.77123c0.36547,-1.40214 0.4131,-0.59291 0.64381,-0.11054c0.7008,1.46529 0.88485,1.42783 0.82294,2.06455c0,0 0.02001,0.38378 -0.23206,0.83835c-0.12474,0.22496 -0.84967,0.18223 -0.84967,0.18223z" fill="#ff0000" stroke="none"/><path d="M40.5394,66.87578c0,0 -0.08349,-0.0606 -0.1896,-0.22461c-0.07955,-0.12297 -0.0817,-0.27626 -0.08001,-0.28458c0.01358,-0.06699 0.00914,-0.06914 0.04147,-0.0247c0.03352,0.04606 0.10457,0.14195 0.16072,0.25414c0.04312,0.08612 0.05048,0.09322 0.18598,0.21747c0.106,0.09719 0.12324,0.09432 0.25171,0.14066c0.21812,0.07867 0.48742,0.14992 0.35832,0.14127c-0.05664,-0.00379 -0.09975,0.00154 -0.13443,-0.0006c-0.12817,-0.0079 -0.14123,-0.01837 -0.29662,-0.05999c-0.12685,-0.03397 -0.2219,-0.10179 -0.29756,-0.15906z" data-paper-data="{&quot;index&quot;:null}" fill="#ffffff" stroke="#ffffff"/></g></g><g stroke-linecap="butt"><path d="M35.15178,65.97123c0,1.38741 -1.14341,2.51214 -2.55387,2.51214c-1.41047,0 -2.55387,-1.12473 -2.55387,-2.51214c0,-1.38741 1.14341,-2.51214 2.55387,-2.51214c1.41046,0 2.55387,1.12472 2.55387,2.51214z" fill="#000000" stroke="#ffffff" stroke-width="0.5"/><g stroke-width="0"><path d="M32.54639,67.79779c-0.59728,-0.05808 -0.8924,-0.56664 -0.83049,-1.20335c0.03469,-0.35671 0.30068,-1.21564 0.44549,-1.77123c0.36547,-1.40214 0.4131,-0.59291 0.64381,-0.11054c0.7008,1.46529 0.88485,1.42783 0.82294,2.06455c0,0 0.02001,0.38378 -0.23206,0.83835c-0.12474,0.22496 -0.84967,0.18223 -0.84967,0.18223z" fill="#ff7600" stroke="none"/><path d="M32.23266,67.38572c0,0 -0.08349,-0.0606 -0.1896,-0.22461c-0.07955,-0.12297 -0.0817,-0.27626 -0.08001,-0.28458c0.01358,-0.06699 0.00914,-0.06914 0.04147,-0.0247c0.03352,0.04606 0.10457,0.14195 0.16072,0.25414c0.04312,0.08612 0.05048,0.09322 0.18598,0.21747c0.106,0.09719 0.12324,0.09432 0.25171,0.14066c0.21812,0.07867 0.48742,0.14992 0.35832,0.14127c-0.05664,-0.00379 -0.09975,0.00154 -0.13443,-0.0006c-0.12817,-0.0079 -0.14123,-0.01837 -0.29662,-0.05999c-0.12685,-0.03397 -0.2219,-0.10179 -0.29756,-0.15906z" data-paper-data="{&quot;index&quot;:null}" fill="#ffffff" stroke="#ffffff"/></g></g><g stroke-linecap="butt"><path d="M51.2939,74.3491c0,1.38741 -1.14341,2.51214 -2.55387,2.51214c-1.41047,0 -2.55387,-1.12473 -2.55387,-2.51214c0,-1.38741 1.14341,-2.51214 2.55387,-2.51214c1.41046,0 2.55387,1.12472 2.55387,2.51214z" fill="#b9b9b9" stroke="#ffffff" stroke-width="0.5"/><text transform="translate(48.40082,75.93864) rotate(-24.0423) scale(0.10277,0.08946) skewX(9.89312)" font-size="40" xml:space="preserve" fill="#ff0000" fill-rule="nonzero" stroke="none" stroke-width="1" stroke-linecap="butt" stroke-linejoin="miter" stroke-miterlimit="10" stroke-dasharray="" stroke-dashoffset="0" font-family="Marker" font-weight="normal" text-anchor="start" style="mix-blend-mode: normal"><tspan x="0" dy="0">!</tspan></text></g><g stroke-linecap="butt"><path d="M38.38143,59.60943c0,1.38741 -1.14341,2.51214 -2.55387,2.51214c-1.41047,0 -2.55387,-1.12473 -2.55387,-2.51214c0,-1.38741 1.14341,-2.51214 2.55387,-2.51214c1.41046,0 2.55387,1.12472 2.55387,2.51214z" fill="#000000" stroke="#ffffff" stroke-width="0.5"/><g stroke-width="0"><path d="M35.77602,61.436c-0.59727,-0.05808 -0.8924,-0.56663 -0.83049,-1.20335c0.03469,-0.35671 0.30068,-1.21565 0.44549,-1.77123c0.36547,-1.40214 0.4131,-0.59291 0.64381,-0.11054c0.7008,1.46528 0.88486,1.42783 0.82294,2.06455c0,0 0.02001,0.38378 -0.23207,0.83834c-0.12474,0.22496 -0.84968,0.18222 -0.84968,0.18222z" fill="#00d039" stroke="none"/><path d="M35.46231,61.02394c0,0 -0.08348,-0.0606 -0.18959,-0.22461c-0.07956,-0.12297 -0.0817,-0.27626 -0.08001,-0.28458c0.01358,-0.06698 0.00913,-0.06914 0.04147,-0.02469c0.03352,0.04606 0.10457,0.14196 0.16073,0.25413c0.04312,0.08612 0.05048,0.09322 0.18598,0.21747c0.106,0.0972 0.12324,0.09432 0.25171,0.14066c0.21812,0.07867 0.48742,0.14992 0.35832,0.14128c-0.05664,-0.00379 -0.09975,0.00154 -0.13444,-0.0006c-0.12817,-0.0079 -0.14123,-0.01837 -0.29662,-0.05999c-0.12685,-0.03397 -0.2219,-0.10179 -0.29756,-0.15906z" data-paper-data="{&quot;index&quot;:null}" fill="#ffffff" stroke="#ffffff"/></g></g><g stroke-linecap="butt"><path d="M56.98563,81.1867c0,1.38741 -1.14341,2.51214 -2.55387,2.51214c-1.41047,0 -2.55387,-1.12473 -2.55387,-2.51214c0,-1.38741 1.14341,-2.51214 2.55387,-2.51214c1.41046,0 2.55387,1.12472 2.55387,2.51214z" fill="#9966ff" stroke="#ffffff" stroke-width="0.5"/><g stroke="none"><path d="M54.44706,82.28362c-1.14952,0 -2.08139,-0.45399 -2.08139,-1.01401c0,-0.56002 0.93187,-1.01401 2.08139,-1.01401c1.14952,0 2.08139,0.45399 2.08139,1.01401c0,0.56002 -0.93187,1.01401 -2.08139,1.01401z" fill="#002fff" stroke-width="0"/><g fill="#000000" stroke-width="0.5"><path d="M54.91737,80.80169c0.06278,0.04925 0,0.0985 0,0.0985l-0.02614,0.01798c-0.11764,0.05297 -0.36413,-0.00393 -0.47094,-0.07733c-0.12147,0.16408 -0.36836,0.07422 -0.4752,-0.00898c-0.13061,0.25515 -0.39108,0.16186 -0.51075,0.07885c-0.05902,0.15004 -0.11963,0.2534 -0.34174,0.29423c0,0 -0.08667,0.01511 -0.10593,-0.05288c-0.01926,-0.06799 0.06741,-0.0831 0.06741,-0.0831c0.16443,-0.02654 0.17726,-0.11076 0.22323,-0.22998l0.00968,-0.07593c0.00398,-0.03558 0.04205,-0.06349 0.08844,-0.06349c0.04608,0 0.08397,0.02755 0.08836,0.06279l0.00481,0.03395c0.11965,0.10048 0.26245,0.13711 0.32959,-0.05518l0.00973,-0.06867c0.00439,-0.03525 0.04227,-0.06279 0.08836,-0.06279c0.03879,0 0.07177,0.01952 0.08386,0.04672l0.02554,0.05344c0.111,0.0831 0.25874,0.16442 0.28252,0.02243l-0.0001,-0.00001l0.02056,-0.0887c0.00686,-0.03311 0.04348,-0.05839 0.08763,-0.05839c0.03544,0 0.06603,0.01629 0.08027,0.03985l0.02189,0.07144c0.08575,0.08427 0.18864,0.16615 0.2987,0.10359l-0.00531,0.00164c0,0 0.06278,-0.04925 0.12556,0z"/><path d="M55.71481,81.43058c0.07319,0.05742 0,0.11483 0,0.11483l-0.03047,0.02096c-0.13714,0.06176 -0.42452,-0.00458 -0.54903,-0.09015c-0.14161,0.19129 -0.42944,0.08652 -0.554,-0.01047c-0.15226,0.29746 -0.45593,0.1887 -0.59545,0.09192c-0.0688,0.17492 -0.13947,0.29542 -0.39841,0.34302c0,0 -0.10104,0.01762 -0.12349,-0.06165c-0.02245,-0.07927 0.07859,-0.09688 0.07859,-0.09688c0.1917,-0.03094 0.20666,-0.12913 0.26024,-0.26811l0.01128,-0.08852c0.00464,-0.04148 0.04903,-0.07401 0.1031,-0.07401c0.05373,0 0.09789,0.03211 0.10301,0.07321l0.00561,0.03958c0.13949,0.11715 0.30597,0.15985 0.38424,-0.06432l0.01134,-0.08006c0.00512,-0.04109 0.04928,-0.07321 0.10301,-0.07321c0.04522,0 0.08367,0.02275 0.09776,0.05446l0.02978,0.0623c0.12941,0.09688 0.30164,0.19168 0.32937,0.02615l-0.00012,-0.00002l0.02397,-0.1034c0.008,-0.0386 0.05069,-0.06807 0.10216,-0.06807c0.04132,0 0.07698,0.01899 0.09358,0.04646l0.02553,0.08329c0.09997,0.09824 0.21992,0.1937 0.34823,0.12077l-0.00619,0.00191c0,0 0.07319,-0.05742 0.14638,0z"/></g></g></g><g><path d="M65.07474,82.32889c0,1.38741 -1.14341,2.51214 -2.55387,2.51214c-1.41047,0 -2.55387,-1.12473 -2.55387,-2.51214c0,-1.38741 1.14341,-2.51214 2.55387,-2.51214c1.41046,0 2.55387,1.12472 2.55387,2.51214z" fill="#9966ff" stroke="#ffffff" stroke-width="0.5" stroke-linecap="butt"/><g><g data-paper-data="{&quot;index&quot;:null}" stroke="#000000" stroke-width="0"><path d="M62.16825,81.21755c-0.08437,-0.194 -0.05435,-0.39406 0.06708,-0.44686c0.12141,-0.0528 0.28823,0.06165 0.3726,0.25565c0.08437,0.194 0.05435,0.39406 -0.06708,0.44686c-0.12141,0.0528 -0.28823,-0.06165 -0.3726,-0.25565z" data-paper-data="{&quot;index&quot;:null}" fill="#0dbd00" stroke-linecap="butt"/><path d="M62.53551,81.46657l-0.29738,-0.68884" fill="none" stroke-linecap="round"/><path d="M62.60404,81.03396l-0.12097,0.30887l-0.30623,-0.10664" fill="none" stroke-linecap="round"/><path d="M62.49695,80.86839l-0.07991,0.30378l-0.28818,-0.10255" fill="none" stroke-linecap="round"/><path d="M62.34503,80.76791l-0.02056,0.21155l-0.17846,-0.0983" fill="none" stroke-linecap="round"/></g><path d="M62.74356,81.42223c0.04336,0.11543 -0.01236,0.1859 -0.06038,0.22257c-0.07784,0.14509 -0.08631,0.22148 -0.03585,0.40177c0,0 0.04864,0.19154 -0.1429,0.24019c-0.19154,0.04864 -0.24019,-0.1429 -0.24019,-0.1429c-0.07041,-0.29737 -0.04297,-0.47041 0.10053,-0.73961l0.12429,-0.09752c0,0 0.185,-0.0695 0.25449,0.1155z" fill="#8a4b37" stroke="none" stroke-width="0.5" stroke-linecap="butt"/><path d="M63.69305,82.78254c0,0.67535 -0.55241,1.22281 -1.23383,1.22281c-0.68143,0 -1.23383,-0.54747 -1.23383,-1.22281c0,-0.5639 0.38514,-1.03865 0.90895,-1.17998c0.10351,-0.02793 0.1904,0.22156 0.30285,0.22156c0.14827,0 0.31246,-0.23847 0.44415,-0.19096c0.47355,0.17087 0.81173,0.62098 0.81173,1.14938z" fill="#ff0000" stroke="none" stroke-width="0" stroke-linecap="butt"/><g data-paper-data="{&quot;index&quot;:null}" stroke="#000000" stroke-width="0"><path d="M63.00876,81.56154c-0.22026,0.08791 -0.44342,0.04741 -0.49844,-0.09044c-0.05502,-0.13785 0.07895,-0.32087 0.29921,-0.40877c0.22026,-0.08791 0.44342,-0.04741 0.49844,0.09044c0.05502,0.13785 -0.07894,0.32087 -0.29921,0.40877z" data-paper-data="{&quot;index&quot;:null}" fill="#0dbd00" stroke-linecap="butt"/><path d="M63.30036,81.15854l-0.78206,0.30967" fill="none" stroke-linecap="round"/><path d="M62.81794,81.06695l0.34197,0.14612l-0.12996,0.3395" fill="none" stroke-linecap="round"/><path d="M62.62874,81.18129l0.33767,0.09993l-0.12477,0.31941" fill="none" stroke-linecap="round"/><path d="M62.51097,81.34807l0.23635,0.03027l-0.11626,0.1966" fill="none" stroke-linecap="round"/></g></g></g><path d="M77.00645,58.97868z" fill="#000000" stroke="none" stroke-width="0" stroke-linecap="butt"/><path d="M77.3054,58.97868z" fill="#000000" stroke="none" stroke-width="0" stroke-linecap="butt"/><g><path d="M94.58714,54.14986c0,1.38741 -1.14341,2.51214 -2.55387,2.51214c-1.41047,0 -2.55387,-1.12473 -2.55387,-2.51214c0,-1.38741 1.14341,-2.51214 2.55387,-2.51214c1.41046,0 2.55387,1.12472 2.55387,2.51214z" fill="#b9b9b9" stroke="#ffffff" stroke-width="0.5" stroke-linecap="butt"/><g stroke-width="0"><path d="M90.72018,52.79019c0.11956,-0.11892 0.26974,-0.25975 0.47017,-0.33029c0.24553,-0.08642 0.26617,-0.10816 0.46869,-0.12457c0.0548,-0.00444 0.12293,0.00663 0.21243,-0.00124c0.20399,-0.01794 -0.22152,0.13001 -0.56618,0.29336c-0.20299,0.09621 -0.23025,0.09024 -0.39773,0.29207c-0.2141,0.258 -0.22575,0.27273 -0.29387,0.45156c-0.08874,0.23294 -0.201,0.43206 -0.25396,0.52771c-0.05111,0.0923 -0.04407,0.08781 -0.06554,-0.05128c-0.00267,-0.01728 0.00072,-0.33559 0.12643,-0.59093c0.16766,-0.34056 0.29957,-0.46639 0.29957,-0.46639z" fill="#ffffff" stroke="#ffffff" stroke-linecap="butt"/><g><path d="M90.737,53.85471l0.6627,-0.80872l0.73009,0.59531l0.57284,-0.42682l0.90981,0.88735l-0.3145,0.67393l-0.99967,0.40436l-0.33697,-0.15725l-0.60654,0.26957l-0.99967,-0.56161z" fill="#727272" stroke="#000000" stroke-linecap="round"/><path d="M90.87045,54.63404l0.57685,-0.74328l0.08289,0.06433l-0.57685,0.74328z" fill="#0c0815" stroke="none" stroke-linecap="butt"/><path d="M91.48496,54.75611l0.73842,-0.58306l0.06502,0.08235l-0.73842,0.58306z" fill="#0c0815" stroke="none" stroke-linecap="butt"/><path d="M93.08862,54.53956l-0.52021,-0.78396l0.08743,-0.05801l0.52021,0.78396z" fill="#0c0815" stroke="none" stroke-linecap="butt"/></g></g></g><g data-paper-data="{&quot;index&quot;:null}" stroke-linecap="butt"><path d="M24.81507,77.52075c-1.41046,0 -2.55387,-1.12473 -2.55387,-2.51214c0,-1.38741 1.1434,-2.51214 2.55387,-2.51214c1.41046,0 2.55387,1.12473 2.55387,2.51214c0,1.38742 -1.14341,2.51214 -2.55387,2.51214z" fill="#616472" stroke="#ffffff" stroke-width="0.5"/><g fill="#ff7600" stroke="#000000" stroke-width="0"><g><path d="M24.75685,75.23715l-1.39669,-1.36885l0.44934,-0.36479l1.39669,1.36885z"/><path d="M26.26967,73.89409l-1.44071,1.41559l-0.43792,-0.42511l1.44071,-1.41559z" data-paper-data="{&quot;index&quot;:null}"/></g><g><path d="M24.68865,76.64269l-1.39669,-1.36885l0.44934,-0.36479l1.39669,1.36885z"/><path d="M26.20146,75.29962l-1.4407,1.41559l-0.43792,-0.42511l1.4407,-1.41559z" data-paper-data="{&quot;index&quot;:null}"/></g></g></g><path d="M51.74945,25.73793c0,1.38741 -1.14341,2.51214 -2.55387,2.51214c-1.41047,0 -2.55387,-1.12473 -2.55387,-2.51214c0,-1.38741 1.14341,-2.51214 2.55387,-2.51214c1.41046,0 2.55387,1.12472 2.55387,2.51214z" fill="#616472" stroke="#ffffff" stroke-width="0.5" stroke-linecap="butt"/><path d="M72.28476,26.35148c0,1.38741 -1.14341,2.51214 -2.55387,2.51214c-1.41047,0 -2.55387,-1.12473 -2.55387,-2.51214c0,-1.38741 1.14341,-2.51214 2.55387,-2.51214c1.41046,0 2.55387,1.12472 2.55387,2.51214z" fill="#616472" stroke="#ffffff" stroke-width="0.5" stroke-linecap="butt"/><g><path d="M70.92113,91.40601c0,1.38741 -1.14341,2.51214 -2.55387,2.51214c-1.41047,0 -2.55387,-1.12473 -2.55387,-2.51214c0,-1.38741 1.14341,-2.51214 2.55387,-2.51214c1.41046,0 2.55387,1.12472 2.55387,2.51214z" fill="#616472" stroke="#ffffff" stroke-width="0.5" stroke-linecap="butt"/><g fill="#ff5402"><path d="M67.53718,92.53141l2.00958,-2.24449" stroke="#ff5402" stroke-width="0.5" stroke-linecap="round"/><g stroke="none" stroke-width="0" stroke-linecap="butt"><path d="M69.02144,90.24867l0.84962,-0.2805l-0.09337,0.35679l-0.84962,0.2805z"/><path d="M69.32056,90.98468l0.19834,-0.87247l0.34628,-0.12691l-0.19834,0.87247z" data-paper-data="{&quot;index&quot;:null}"/></g><g stroke="#ff5402" stroke-width="0" stroke-linecap="butt"><path d="M66.9346,92.2798l0.6831,0.07282l-0.18791,0.21715l-0.6831,-0.07283z"/><path d="M67.63191,93.40598l-0.12778,-0.77231l0.18312,-0.20235l0.12778,0.77231z" data-paper-data="{&quot;index&quot;:null}"/></g><g stroke="#ff5402" stroke-width="0" stroke-linecap="butt"><path d="M67.26112,91.92992l0.6831,0.07282l-0.18791,0.21715l-0.6831,-0.07282z"/><path d="M67.95843,93.05609l-0.12777,-0.77231l0.18311,-0.20235l0.12778,0.77231z" data-paper-data="{&quot;index&quot;:null}"/></g></g></g><g stroke-linecap="butt"><path d="M81.92113,93.40601c0,1.38741 -1.14341,2.51214 -2.55387,2.51214c-1.41047,0 -2.55387,-1.12473 -2.55387,-2.51214c0,-1.38741 1.14341,-2.51214 2.55387,-2.51214c1.41046,0 2.55387,1.12472 2.55387,2.51214z" fill="#616472" stroke="#ffffff" stroke-width="0.5"/><g fill="#ff5402" stroke="none"><path d="M80.69358,93.36199c-0.12333,0.13363 -0.21815,0.00086 -0.21815,0.00086l-0.06734,-0.1054c-0.79117,-0.1968 -1.88598,0.15182 -2.22856,1.26243c0,0 -0.05697,0.1829 -0.20174,0.1378c-0.14477,-0.04509 -0.08779,-0.22799 -0.08779,-0.22799c0.4192,-1.33459 1.74997,-1.83499 2.70518,-1.50068l0.12691,0.16658c0,0 0.09482,0.13276 -0.02851,0.26639z" stroke-width="0.5"/><g stroke-width="0"><path d="M79.92957,92.19076l0.33127,-0.118l0.90212,1.18586l-0.33127,0.118z"/><path d="M79.77091,93.75843l-0.21141,-0.28338l1.40077,-0.48405l0.21141,0.28338z" data-paper-data="{&quot;index&quot;:null}"/></g></g></g><g stroke-linecap="butt"><path d="M121.97525,62.51814c0,1.38741 -1.14341,2.51214 -2.55387,2.51214c-1.41047,0 -2.55387,-1.12473 -2.55387,-2.51214c0,-1.38741 1.14341,-2.51214 2.55387,-2.51214c1.41046,0 2.55387,1.12472 2.55387,2.51214z" fill="#ffffff" stroke="#ffffff" stroke-width="0.5"/><g fill="#000000" stroke-width="0"><path d="M117.25977,61.06373z" stroke="none"/><path d="M117.35246,61.06373z" stroke="none"/><g stroke="#000000"><path d="M118.75575,61.70429c0,0.25658 -0.15626,0.46459 -0.34902,0.46459c-0.19276,0 -0.34902,-0.208 -0.34902,-0.46459c0,-0.25658 0.15626,-0.46459 0.34902,-0.46459c0.19276,0 0.34902,0.208 0.34902,0.46459z"/><path d="M117.97492,62.36631l0.89651,-0.011l-0.45523,1.56189z"/></g><g stroke="#000000"><path d="M121.01111,61.65885c0,0.25658 -0.15626,0.46459 -0.34902,0.46459c-0.19276,0 -0.34902,-0.208 -0.34902,-0.46459c0,-0.25658 0.15626,-0.46459 0.34902,-0.46459c0.19276,0 0.34902,0.208 0.34902,0.46459z"/><path d="M120.23027,62.32087l0.89651,-0.011l-0.45523,1.56189z"/></g><g stroke="#000000"><path d="M119.92857,61.54386c0,0.30648 -0.18665,0.55494 -0.41689,0.55494c-0.23024,0 -0.41689,-0.24846 -0.41689,-0.55494c0,-0.30648 0.18665,-0.55494 0.41689,-0.55494c0.23024,0 0.41689,0.24846 0.41689,0.55494z"/><path d="M118.99589,62.33462l1.07085,-0.01314l-0.54377,1.86563z"/></g></g></g><g stroke-width="0.5" stroke-linecap="butt"><path d="M96.89192,79.35147c0,1.38741 -1.14341,2.51214 -2.55387,2.51214c-1.41047,0 -2.55387,-1.12473 -2.55387,-2.51214c0,-1.38741 1.14341,-2.51214 2.55387,-2.51214c1.41046,0 2.55387,1.12472 2.55387,2.51214z" fill="#ffb900" stroke="#ffffff"/><path d="M93.885,80.05091c-0.03104,-0.08833 0.42322,-0.52248 0.51156,-0.55352c0.05339,-0.01876 0.00721,-0.14941 0.45562,-0.4639c0.04232,-0.02968 -0.29782,0.03218 -0.5459,-0.07438c-0.03708,-0.01593 -0.35844,0.28437 -0.73069,0.67806c-0.03136,0.03316 0.06138,0.54637 0.17974,0.89783c0.00543,0.01612 0.24854,-0.00881 0.46918,-0.11661c0.26611,-0.13002 0.47616,-0.36678 0.82201,-0.64893c0.20461,-0.16692 0.42153,-0.39393 0.58197,-0.6077c0.11079,-0.14761 0.169,-0.3011 0.28231,-0.37439c0.03464,-0.02241 -0.26939,-0.35403 -0.87466,-0.47797c-0.36452,-0.07464 -0.81515,0.05643 -1.13338,-0.01259c-0.12723,-0.0276 -1.18319,1.79743 -1.25972,1.78176c-0.20373,-0.04171 0.86171,-1.80369 0.87969,-1.81503c0.04868,-0.03069 0.05099,-0.24905 0.38109,-0.21187c0.31745,0.03576 0.7496,-0.05942 1.13665,0.01322c0.52765,0.09903 0.74572,0.31789 0.98096,0.42761c0.09651,0.04501 0.16724,0.26014 0.16783,0.26203c0.0047,0.01491 -0.04449,0.20326 -0.1095,0.3177c-0.09822,0.17291 -0.67713,0.87129 -0.85973,1.02541c-0.01661,0.01402 -0.93175,0.62095 -0.94952,0.63455c-0.25561,0.19562 -0.44939,0.24535 -0.45776,0.25401c-0.04598,0.04762 -0.14989,-0.04666 -0.26612,-0.18963c-0.08441,-0.10383 -0.17533,-0.23335 -0.2553,-0.35285c-0.12472,-0.18638 -0.04656,-0.51704 -0.05181,-0.51938c-0.03582,-0.01598 -0.00817,-0.22096 0.09116,-0.38914c0.25794,-0.43671 0.66288,-0.93296 0.67904,-0.94242c0.05243,-0.03073 0.18414,-0.02486 0.34805,0.0004c0.2644,0.04075 0.38028,0.02404 0.61456,0.09364c0.15167,0.04506 0.24511,0.13854 0.24769,0.14589c0.00661,0.01882 0.18712,0.13754 0.08414,0.23363c-0.03787,0.03534 -0.08125,0.07444 -0.12873,0.11624c-0.4295,0.37805 -1.00104,0.94792 -1.06364,0.96992c-0.08833,0.03104 -0.19575,-0.01325 -0.22679,-0.10158z" fill="#9966ff" stroke="none"/></g><g stroke-linecap="butt"><path d="M101.89192,84.35147c0,1.38741 -1.14341,2.51214 -2.55387,2.51214c-1.41047,0 -2.55387,-1.12473 -2.55387,-2.51214c0,-1.38741 1.14341,-2.51214 2.55387,-2.51214c1.41046,0 2.55387,1.12472 2.55387,2.51214z" fill="#ffb900" stroke="#ffffff" stroke-width="0.5"/><g fill="#ff0000" stroke="#000000" stroke-width="0"><g><path d="M97.59453,84.20906l2.29092,-1.68072l0.6019,0.55224l-2.29092,1.68072z"/><path d="M99.4248,86.26287l-2.06347,-1.86855l0.66916,-0.49741l2.06347,1.86855z" data-paper-data="{&quot;index&quot;:null}"/></g><g><g><path d="M100.06938,83.37215l0.39883,-0.29858l0.09442,0.57713z"/><path d="M99.55016,83.75486l0.39883,-0.29858l0.09442,0.57713z"/><path d="M99.03094,84.1l0.39883,-0.29858l0.09442,0.57713z"/></g><g><path d="M99.3933,84.57247l-0.09442,0.57713l-0.39883,-0.29858z" data-paper-data="{&quot;index&quot;:null}"/><path d="M99.76348,84.9176l-0.09442,0.57713l-0.39883,-0.29858z" data-paper-data="{&quot;index&quot;:null}"/><path d="M100.13367,85.22515l-0.09442,0.57713l-0.39883,-0.29858z" data-paper-data="{&quot;index&quot;:null}"/></g></g></g></g><g stroke-linecap="butt"><path d="M94.88001,31.37528c0,1.38741 -1.14341,2.51214 -2.55387,2.51214c-1.41047,0 -2.55387,-1.12473 -2.55387,-2.51214c0,-1.38741 1.14341,-2.51214 2.55387,-2.51214c1.41046,0 2.55387,1.12472 2.55387,2.51214z" fill="#ff7600" stroke="#ffffff" stroke-width="0.5"/><g stroke-width="0"><path d="M91.04442,30.03207c0.12226,-0.12162 0.27586,-0.26563 0.48082,-0.33777c0.25109,-0.08837 0.2722,-0.11062 0.4793,-0.12739c0.05604,-0.00454 0.12571,0.00678 0.21724,-0.00127c0.20861,-0.01835 -0.22654,0.13296 -0.579,0.30001c-0.20759,0.09839 -0.23547,0.09228 -0.40674,0.29868c-0.21895,0.26385 -0.23086,0.27891 -0.30053,0.46179c-0.09075,0.23822 -0.20555,0.44185 -0.25972,0.53966c-0.05227,0.09439 -0.04507,0.0898 -0.06702,-0.05245c-0.00273,-0.01767 0.00074,-0.34319 0.12929,-0.60431c0.17146,-0.34828 0.30636,-0.47696 0.30636,-0.47696z" fill="#ffffff" stroke="#ffffff"/><path d="M93.48594,31.53387c0,0.72625 -0.55786,1.20924 -1.11558,1.20924c-0.55771,0 -1.12439,-0.43012 -1.12439,-1.15637c0,-0.72625 0.56668,-1.47362 1.12439,-1.47362c0.55771,0 1.11558,0.69449 1.11558,1.42075z" fill="#dcdcdc" stroke="#000000"/><path d="M91.24237,31.57573l0.61328,-0.56043l0.04311,0.04718l-0.61328,0.56043z" fill="#000000" stroke="#000000"/><path d="M92.2013,31.676l-0.37213,-0.61428l0.04725,-0.02862l0.37213,0.61428z" data-paper-data="{&quot;index&quot;:null}" fill="#000000" stroke="#000000"/><path d="M92.17738,31.64737l0.37213,-0.61428l0.04725,0.02862l-0.37213,0.61428z" data-paper-data="{&quot;index&quot;:null}" fill="#000000" stroke="#000000"/><path d="M92.92388,31.37741l-0.37548,-0.31148l0.02396,-0.02888l0.37548,0.31148z" data-paper-data="{&quot;index&quot;:null}" fill="#000000" stroke="#000000"/><path d="M93.39068,31.02378l-0.45187,0.37486l-0.02883,-0.03476l0.45188,-0.37486z" data-paper-data="{&quot;index&quot;:null}" fill="#000000" stroke="#000000"/></g></g><g stroke-linecap="butt"><path d="M84.6181,67.26814c0,1.38741 -1.14341,2.51214 -2.55387,2.51214c-1.41047,0 -2.55387,-1.12473 -2.55387,-2.51214c0,-1.38741 1.14341,-2.51214 2.55387,-2.51214c1.41046,0 2.55387,1.12472 2.55387,2.51214z" fill="#9966ff" stroke="#ffffff" stroke-width="0.5"/><g stroke="none" stroke-width="0"><g fill="#ffffff"><path d="M82.69999,68.31825c0,0.35963 -0.29154,0.65116 -0.65116,0.65116c-0.35963,0 -0.65116,-0.29154 -0.65116,-0.65116c0,-0.35963 0.29154,-0.65116 0.65116,-0.65116c0.35963,0 0.65116,0.29154 0.65116,0.65116z"/><path d="M82.05317,68.57082c-0.16757,0 -0.30341,-0.37551 -0.30341,-0.83873c0,-0.46322 0.0347,-2.17083 0.20227,-2.17083c0.03683,0 0.08444,-0.05139 0.24381,0.01881c0.12496,0.05504 0.16074,1.79062 0.16074,2.15202c0,0.46322 -0.13584,0.83873 -0.30341,0.83873z"/></g><g fill="#ff0000"><path d="M82.40025,68.38813c0,0.18849 -0.1528,0.34129 -0.34129,0.34129c-0.18849,0 -0.34129,-0.1528 -0.34129,-0.34129c0,-0.18849 0.1528,-0.34129 0.34129,-0.34129c0.18849,0 0.34129,0.1528 0.34129,0.34129z"/><path d="M82.17075,67.73191c0,0.31928 -0.04882,0.57811 -0.10903,0.57811c-0.06022,0 -0.10903,-0.25883 -0.10903,-0.57811c0,-0.31929 0.01247,-1.49629 0.07268,-1.49629c0.01323,0 0.03034,-0.03542 0.08761,0.01297c0.0449,0.03793 0.05776,1.23422 0.05776,1.48332z"/></g></g></g><g stroke-linecap="butt"><path d="M93.88475,88.44433c0,1.38741 -1.14341,2.51214 -2.55387,2.51214c-1.41047,0 -2.55387,-1.12473 -2.55387,-2.51214c0,-1.38741 1.14341,-2.51214 2.55387,-2.51214c1.41046,0 2.55387,1.12472 2.55387,2.51214z" fill="#ffb900" stroke="#ffffff" stroke-width="0.5"/><g fill="#000000" stroke-width="0"><g stroke="none"><path d="M91.00389,89.459c0,0 0.39609,-0.5171 0.37943,-0.99174c-0.01752,-0.49902 -0.50686,-0.92471 -0.40531,-0.92768c0.20082,-0.00586 0.63613,0.41277 0.65234,0.93504c0.01621,0.52227 -0.34937,0.9982 -0.62647,0.98438z"/><path d="M91.46694,89.83975c0,0 0.58613,-0.93533 0.56773,-1.43686c-0.01935,-0.52729 -0.99498,-1.1722 -0.88281,-1.17533c0.22726,-0.3951 1.14129,0.84219 1.09805,1.16805c0.10436,0.61208 -0.47689,1.45873 -0.78297,1.44413z"/><path d="M91.87383,90.289c0,0 0.77475,-1.27792 0.75043,-1.96315c-0.02557,-0.72042 -1.31517,-1.60154 -1.16691,-1.60582c0.30039,-0.53982 1.50857,1.15066 1.45141,1.59588c0.13795,0.83628 -0.63035,1.99303 -1.03494,1.97309z"/></g><g><path d="M89.59141,88.52245l1.24395,-1.08044v2.16685z" data-paper-data="{&quot;index&quot;:null}" stroke="#ffffff"/><path d="M89.56476,88.94688v-0.98607h0.77286v0.98607z" stroke="none"/></g></g></g><g><path d="M42.95143,88.60147c0,1.38741 -1.14341,2.51214 -2.55387,2.51214c-1.41047,0 -2.55387,-1.12473 -2.55387,-2.51214c0,-1.38741 1.14341,-2.51214 2.55387,-2.51214c1.41046,0 2.55387,1.12472 2.55387,2.51214z" fill="#9966ff" stroke="#ffffff" stroke-width="0.5" stroke-linecap="butt"/><g><path d="M40.32333,87.65974v1.07143l1.10714,0.92857" fill="none" stroke="#ff0000" stroke-width="0.5" stroke-linecap="round"/><g fill="#000000" stroke="none" stroke-width="0" stroke-linecap="butt"><path d="M40.28762,87.12403v-0.78571h0.14285v0.78571z"/><path d="M40.32333,90.83831v-0.78572h0.14286v0.78572z"/><path d="M38.07333,88.5526l0.78572,0.00001v0.14285l-0.78572,-0.00001z"/><path d="M41.89476,88.44545l0.78572,0.00001v0.14286l-0.78572,-0.00001z"/></g></g></g></g></g></svg>