<svg version="1.1" xmlns="http://www.w3.org/2000/svg" xmlns:xlink="http://www.w3.org/1999/xlink" width="206.84854" height="195.32118" viewBox="0,0,206.84854,195.32118"><g transform="translate(-136.50645,-82.33941)"><g data-paper-data="{&quot;isPaintingLayer&quot;:true}" fill-rule="nonzero" stroke-linecap="butt" stroke-linejoin="miter" stroke-miterlimit="10" stroke-dasharray="" stroke-dashoffset="0" style="mix-blend-mode: normal"><path d="M136.50645,111.94077z" fill="#000000" stroke="none" stroke-width="0"/><path d="M339.35499,180c0,51.72732 -42.62984,93.66059 -95.21642,93.66059c-52.58657,0 -95.21642,-41.93328 -95.21642,-93.66059c0,-51.72732 42.62984,-93.66059 95.21642,-93.66059c52.58657,0 95.21642,41.93328 95.21642,93.66059z" fill="#d4d4d4" stroke="#000000" stroke-width="8"/><path d="M140.64501,111.94077z" fill="#000000" stroke="none" stroke-width="0"/><path d="M186.42147,119.23176c5.32195,-5.2938 12.00758,-11.56253 20.9295,-14.70266c10.92955,-3.84672 11.84853,-4.81495 20.86339,-5.54536c2.43956,-0.19766 5.47199,0.2952 9.45613,-0.05512c9.08058,-0.79845 -9.861,5.78728 -25.20323,13.05906c-9.03626,4.28293 -10.24936,4.01698 -17.70494,13.00127c-9.53069,11.48487 -10.04914,12.14073 -13.08159,20.10128c-3.95002,10.3693 -8.94753,19.23295 -11.3051,23.49083c-2.27503,4.10881 -1.96183,3.90873 -2.91739,-2.28283c-0.1187,-0.76908 0.03214,-14.93851 5.62792,-26.30513c7.46332,-15.16012 13.3353,-20.76136 13.3353,-20.76136z" fill="#ffffff" stroke="#ffffff" stroke-width="2.5"/></g></g></svg>