<svg version="1.1" xmlns="http://www.w3.org/2000/svg" xmlns:xlink="http://www.w3.org/1999/xlink" width="201.59398" height="187.82118" viewBox="0,0,201.59398,187.82118"><g transform="translate(-133.87244,-86.08941)"><g data-paper-data="{&quot;isPaintingLayer&quot;:true}" fill-rule="nonzero" stroke-linecap="butt" stroke-linejoin="miter" stroke-miterlimit="10" stroke-dasharray="" stroke-dashoffset="0" style="mix-blend-mode: normal"><path d="M136.50645,111.94077z" fill="#000000" stroke="none" stroke-width="0"/><path d="M140.64501,111.94077z" fill="#000000" stroke="none" stroke-width="0"/><g><path d="M145.37393,265.14258c0,3.05624 -2.51872,5.53382 -5.62574,5.53382c-3.10701,0 -5.62574,-2.47758 -5.62574,-5.53382c0,-3.05624 2.51873,-5.53382 5.62574,-5.53382c3.10701,0 5.62574,2.47758 5.62574,5.53382z" fill="#000000" stroke="#ffffff" stroke-width="0.5"/><path d="M142.7041,264.2529c0,0.30561 -0.05989,0.63808 -0.2762,1.02757c-0.23409,0.42151 -0.63753,0.89939 -0.96542,1.19641c-0.48872,0.4427 -0.90045,0.52948 -1.61308,0.52948c-0.59445,0 -1.26256,-0.09387 -1.74314,-0.42226c-0.44469,-0.30386 -0.78706,-0.83985 -1.01068,-1.28832c-0.1984,-0.39787 -0.30333,-0.70529 -0.30333,-1.04288c0,-0.50677 0.28673,-1.09195 0.72804,-1.44921c0.19208,-0.1555 0.39451,-0.4578 0.64201,-0.54804c0.45104,-0.16446 1.00478,-0.0476 1.58588,-0.0476c0.50009,0 1.11288,-0.11655 1.5258,0.0351c0.30374,0.11155 0.56106,0.36103 0.77006,0.56455c0.43438,0.42298 0.66005,0.9163 0.66005,1.4452z" fill="#fcfc12" stroke="none" stroke-width="0"/><path d="M139.73383,265.22265l-0.02179,-0.12577c0.01744,-0.14416 0.07375,-0.28218 0.1433,-0.40044c0.14527,-0.07853 0.35977,-0.16902 0.51783,-0.05231c0.13397,0.09892 0.26611,0.43329 0.23848,0.62151c-0.03178,0.21648 -0.27885,0.48769 -0.39439,0.63925c-0.05417,0.07107 -0.14147,0.10992 -0.17478,0.19815c-0.02972,0.0787 0.02133,0.17167 0.02549,0.25823c0.01082,0.22519 0.033,0.45153 0.03331,0.6773c0,0 0.00001,0.14771 -0.12066,0.14771c-0.12067,0 -0.12067,-0.14771 -0.12067,-0.14771c0.00034,-0.21934 -0.02233,-0.44008 -0.03284,-0.65894c-0.00549,-0.11428 -0.04485,-0.27949 -0.00759,-0.38964c0.02382,-0.0704 0.08264,-0.11402 0.12539,-0.1694c0.10514,-0.13619 0.20852,-0.27133 0.30687,-0.41527c0.0091,-0.01331 0.11543,-0.15978 0.12322,-0.19761c0.01488,-0.07219 -0.06134,-0.17321 -0.08122,-0.21286c-0.06652,-0.13265 -0.1657,-0.12696 -0.28713,-0.06827c-0.03399,0.05945 -0.0499,0.13467 -0.05516,0.20695l0.01128,-0.00429c0,0 0.03816,0.14013 -0.07631,0.18684c-0.11447,0.04671 -0.15263,-0.09342 -0.15263,-0.09342z" data-paper-data="{&quot;index&quot;:null}" fill="#f1b21e" stroke="none" stroke-width="0.5"/><path d="M139.58231,265.32804c-0.11447,-0.04671 -0.07631,-0.18684 -0.07631,-0.18684l0.01128,0.0043c-0.00526,-0.07227 -0.02117,-0.14749 -0.05516,-0.20694c-0.12143,-0.05869 -0.22062,-0.06438 -0.28714,0.06827c-0.01988,0.03965 -0.09609,0.14066 -0.08121,0.21285c0.0078,0.03783 0.11414,0.1843 0.12323,0.1976c0.09835,0.14395 0.20172,0.2791 0.30686,0.41529c0.04275,0.05538 0.10157,0.09899 0.12539,0.1694c0.03726,0.11014 -0.00209,0.27536 -0.00759,0.38964c-0.01051,0.21885 -0.03318,0.4396 -0.03285,0.65894c0,0 0,0.14771 -0.12067,0.14771c-0.12067,0 -0.12067,-0.14771 -0.12067,-0.14771c0.00031,-0.22577 0.02249,-0.45211 0.03331,-0.6773c0.00416,-0.08655 0.05521,-0.17953 0.02549,-0.25823c-0.03331,-0.08823 -0.12061,-0.12708 -0.17478,-0.19815c-0.11554,-0.15156 -0.36262,-0.42277 -0.39439,-0.63925c-0.02763,-0.18822 0.10451,-0.52259 0.23848,-0.62151c0.15806,-0.11671 0.37256,-0.02621 0.51783,0.05231c0.06956,0.11826 0.12587,0.25628 0.14331,0.40044l-0.0218,0.12577c0,0 -0.03816,0.14013 -0.15263,0.09342z" data-paper-data="{&quot;index&quot;:null}" fill="#f1b21e" stroke="none" stroke-width="0.5"/><g stroke="none" stroke-width="0"><path d="M138.31072,268.11988v-1.45772c0,0 0.94481,0.08098 1.41722,0.08098c0.47241,0 1.41722,-0.08098 1.41722,-0.08098v1.45772z" fill="#b5bad5"/><path d="M138.33097,267.29633v-0.31022c0,0 0.86164,0.06204 1.31599,0.06204c0.48805,0 1.51845,-0.06204 1.51845,-0.06204v0.31022c0,0 -0.99587,0.07446 -1.47796,0.07446c-0.46186,0 -1.35648,-0.07446 -1.35648,-0.07446z" fill="#6e7182"/><path d="M138.3227,267.87519v-0.31023c0,0 0.86164,0.06205 1.31599,0.06205c0.48805,0 1.51845,-0.06205 1.51845,-0.06205v0.31023c0,0 -0.99587,0.07445 -1.47796,0.07445c-0.46186,0 -1.35648,-0.07445 -1.35648,-0.07445z" fill="#6e7182"/></g></g><g><path d="M335.21642,180c0,51.72732 -42.62984,93.66059 -95.21642,93.66059c-52.58657,0 -95.21642,-41.93328 -95.21642,-93.66059c0,-51.72732 42.62984,-93.66059 95.21642,-93.66059c52.58657,0 95.21642,41.93328 95.21642,93.66059z" fill="#000000" stroke="#ffffff" stroke-width="0.5"/><path d="M290.02926,164.94206c0,5.17254 -1.01354,10.79972 -4.6746,17.39177c-3.96211,7.13412 -10.79035,15.22231 -16.33983,20.24932c-8.27162,7.49287 -15.24022,8.9615 -27.3015,8.9615c-10.06112,0 -21.36908,-1.58875 -29.50292,-7.14677c-7.52643,-5.14296 -13.32103,-14.21471 -17.10586,-21.80497c-3.35785,-6.73397 -5.13381,-11.93709 -5.13381,-17.65085c0,-8.57707 4.85283,-18.48141 12.32201,-24.52797c3.25111,-2.63189 6.67716,-7.74831 10.86603,-9.27568c7.63396,-2.78353 17.00606,-0.80563 26.84121,-0.80563c8.46401,0 18.83576,-1.97263 25.82446,0.59404c5.14089,1.88805 9.49599,6.11042 13.03334,9.55497c7.35195,7.1591 11.17146,15.50844 11.17146,24.46027z" fill="#fcfc12" stroke="none" stroke-width="0"/><path d="M239.75702,181.35527l-0.36896,-2.12866c0.29511,-2.43983 1.24822,-4.77584 2.42551,-6.77741c2.45875,-1.32908 6.08913,-2.86069 8.76436,-0.88536c2.26747,1.67425 4.50386,7.33342 4.03626,10.51915c-0.53779,3.66394 -4.71961,8.25431 -6.67509,10.81944c-0.91694,1.20281 -2.39429,1.86025 -2.9582,3.35362c-0.50299,1.33204 0.36104,2.90567 0.43144,4.37061c0.18315,3.81134 0.55858,7.6421 0.5638,11.46332c0,0 0,2.5 -2.04226,2.5c-2.04227,0 -2.04227,-2.5 -2.04227,-2.5c0.00566,-3.71233 -0.37791,-7.44846 -0.5559,-11.15264c-0.09294,-1.93418 -0.75914,-4.7305 -0.12841,-6.59472c0.40313,-1.19152 1.39864,-1.92973 2.12226,-2.86705c1.77952,-2.30501 3.5291,-4.59241 5.19378,-7.02868c0.15392,-0.22528 1.95367,-2.7042 2.08563,-3.34449c0.25185,-1.22194 -1.03809,-2.93162 -1.3746,-3.60266c-1.12586,-2.24513 -2.80453,-2.14875 -4.85973,-1.15552c-0.57522,1.00618 -0.84464,2.2793 -0.9336,3.50256l0.19089,-0.07266c0,0 0.64583,2.37171 -1.29164,3.16228c-1.93747,0.79057 -2.58328,-1.58114 -2.58328,-1.58114z" data-paper-data="{&quot;index&quot;:null}" fill="#f1b21e" stroke="none" stroke-width="0.5"/><path d="M237.19249,183.13909c-1.93747,-0.79057 -1.29164,-3.16228 -1.29164,-3.16228l0.1909,0.07266c-0.08897,-1.22326 -0.35838,-2.49638 -0.9336,-3.50256c-2.0552,-0.99323 -3.73388,-1.0896 -4.85974,1.15552c-0.33651,0.67104 -1.62645,2.38072 -1.3746,3.60266c0.13197,0.64029 1.93171,3.11921 2.08563,3.34449c1.66468,2.43627 3.41426,4.72367 5.19378,7.02868c0.72363,0.93732 1.71913,1.67553 2.12226,2.86705c0.63073,1.86422 -0.03547,4.66054 -0.12841,6.59472c-0.178,3.70417 -0.56157,7.4403 -0.5559,11.15264c0,0 0,2.5 -2.04227,2.5c-2.04226,0 -2.04226,-2.5 -2.04226,-2.5c0.00521,-3.82122 0.38065,-7.65198 0.56379,-11.46332c0.07039,-1.46493 0.93443,-3.03857 0.43144,-4.37061c-0.56392,-1.49337 -2.04126,-2.15081 -2.9582,-3.35362c-1.95548,-2.56512 -6.13729,-7.1555 -6.67508,-10.81944c-0.46759,-3.18573 1.76879,-8.8449 4.03626,-10.51915c2.67523,-1.97533 6.30561,-0.44372 8.76436,0.88536c1.17729,2.00158 2.13041,4.33759 2.42552,6.77741l-0.36896,2.12866c0,0 -0.64581,2.37171 -2.58328,1.58114z" data-paper-data="{&quot;index&quot;:null}" fill="#f1b21e" stroke="none" stroke-width="0.5"/><g stroke="none" stroke-width="0"><path d="M215.67071,230.39129v-24.67196c0,0 15.99108,1.37067 23.98663,1.37067c7.99554,0 23.98663,-1.37067 23.98663,-1.37067v24.67197z" fill="#b5bad5"/><path d="M216.01338,216.45251v-5.25053c0,0 14.58337,1.05011 22.2733,1.05011c8.26031,0 25.69996,-1.05011 25.69996,-1.05011v5.25053c0,0 -16.85518,1.26012 -25.01463,1.26012c-7.81695,0 -22.95863,-1.26012 -22.95863,-1.26012z" fill="#6e7182"/><path d="M215.87339,226.24984v-5.25053c0,0 14.58337,1.05011 22.2733,1.05011c8.26031,0 25.69996,-1.05011 25.69996,-1.05011v5.25053c0,0 -16.85517,1.26013 -25.01462,1.26013c-7.81695,0 -22.95864,-1.26013 -22.95864,-1.26013z" fill="#6e7182"/></g></g></g></g></svg>