<svg version="1.1" xmlns="http://www.w3.org/2000/svg" xmlns:xlink="http://www.w3.org/1999/xlink" width="238.29119" height="187.82118" viewBox="0,0,238.29119,187.82118"><g transform="translate(-97.17526,-86.08941)"><g data-paper-data="{&quot;isPaintingLayer&quot;:true}" fill-rule="nonzero" stroke-linecap="butt" stroke-linejoin="miter" stroke-miterlimit="10" stroke-dasharray="" stroke-dashoffset="0" style="mix-blend-mode: normal"><path d="M97.17526,220.5932z" fill="#000000" stroke="none" stroke-width="0"/><path d="M98.61983,220.5932z" fill="#000000" stroke="none" stroke-width="0"/><path d="M102.17526,225.5932z" fill="#000000" stroke="none" stroke-width="0"/><path d="M138.57575,111.94077z" fill="#000000" stroke="none" stroke-width="0"/><path d="M335.21645,180c0,51.72732 -42.62984,93.66059 -95.21642,93.66059c-52.58657,0 -95.21642,-41.93328 -95.21642,-93.66059c0,-51.72732 42.62984,-93.66059 95.21642,-93.66059c52.58657,0 95.21642,41.93328 95.21642,93.66059z" fill="#ffffff" stroke="#000000" stroke-width="0.5"/><path d="M142.71434,111.94077z" fill="#000000" stroke="none" stroke-width="0"/><g fill="#000000" stroke="#000000" stroke-width="0"><path d="M205.3712,140.54141c0,11.45641 -6.97699,20.74367 -15.58354,20.74367c-8.60655,0 -15.58354,-9.28726 -15.58354,-20.74367c0,-11.45641 6.97699,-20.74366 15.58354,-20.74366c8.60655,0 15.58354,9.28725 15.58354,20.74366z"/><path d="M170.50738,170.10046l40.02882,-0.49107l-20.32612,69.73788z"/></g><g fill="#000000" stroke="#000000" stroke-width="0"><path d="M306.07205,138.51253c0,11.45641 -6.97699,20.74367 -15.58354,20.74367c-8.60655,0 -15.58354,-9.28726 -15.58354,-20.74367c0,-11.45641 6.97699,-20.74366 15.58354,-20.74366c8.60655,0 15.58354,9.28725 15.58354,20.74366z"/><path d="M271.20822,168.07159l40.02882,-0.49107l-20.32613,69.73789z"/></g><g fill="#000000" stroke="#000000" stroke-width="0"><path d="M257.73726,133.37834c0,13.68439 -8.33384,24.77779 -18.61415,24.77779c-10.28031,0 -18.61415,-11.0934 -18.61415,-24.77779c0,-13.68439 8.33384,-24.77778 18.61415,-24.77778c10.28031,0 18.61415,11.09339 18.61415,24.77778z"/><path d="M216.09333,168.68588l47.81341,-0.58657l-24.27904,83.30014z"/></g><g fill="#000000" stroke-width="0"><path d="M143.75977,264.72901z" stroke="none"/><path d="M143.99924,264.72901z" stroke="none"/><g stroke="#000000"><path d="M147.62463,266.38387c0,0.66288 -0.4037,1.20025 -0.90168,1.20025c-0.49799,0 -0.90168,-0.53737 -0.90168,-1.20025c0,-0.66288 0.40369,-1.20026 0.90168,-1.20026c0.49799,0 0.90168,0.53737 0.90168,1.20026z"/><path d="M145.60737,268.09419l2.31611,-0.02841l-1.17609,4.03511z"/></g><g stroke="#000000"><path d="M153.4513,266.26648c0,0.66288 -0.4037,1.20025 -0.90168,1.20025c-0.49799,0 -0.90168,-0.53737 -0.90168,-1.20025c0,-0.66288 0.40369,-1.20025 0.90168,-1.20025c0.49799,0 0.90168,0.53737 0.90168,1.20025z"/><path d="M151.43402,267.9768l2.31611,-0.02841l-1.17609,4.03511z"/></g><g stroke="#000000"><path d="M150.65459,265.96941c0,0.79179 -0.48221,1.43367 -1.07704,1.43367c-0.59483,0 -1.07704,-0.64188 -1.07704,-1.43367c0,-0.79179 0.48221,-1.43367 1.07704,-1.43367c0.59483,0 1.07704,0.64188 1.07704,1.43367z"/><path d="M148.24503,268.01234l2.76653,-0.03394l-1.40481,4.81983z"/></g></g></g></g></svg>