<svg version="1.1" xmlns="http://www.w3.org/2000/svg" xmlns:xlink="http://www.w3.org/1999/xlink" width="65.57548" height="211.03109" viewBox="0,0,65.57548,211.03109"><g transform="translate(-97.17526,-111.94077)"><g data-paper-data="{&quot;isPaintingLayer&quot;:true}" fill-rule="nonzero" stroke-linejoin="miter" stroke-miterlimit="10" stroke-dasharray="" stroke-dashoffset="0" style="mix-blend-mode: normal"><path d="M138.57575,111.94077z" fill="#000000" stroke="none" stroke-width="0" stroke-linecap="butt"/><path d="M142.71433,111.94077z" fill="#000000" stroke="none" stroke-width="0" stroke-linecap="butt"/><path d="M97.17526,220.5932z" fill="#000000" stroke="none" stroke-width="0" stroke-linecap="butt"/><path d="M98.61983,220.5932z" fill="#000000" stroke="none" stroke-width="0" stroke-linecap="butt"/><path d="M102.17526,225.5932z" fill="#000000" stroke="none" stroke-width="0" stroke-linecap="butt"/><g stroke-width="0.5" stroke-linecap="butt"><path d="M143.02987,281.46477c0,3.21458 -2.64922,5.82052 -5.91721,5.82052c-3.26798,0 -5.91721,-2.60594 -5.91721,-5.82052c0,-3.21458 2.64922,-5.82052 5.91721,-5.82052c3.26798,0 5.91721,2.60594 5.91721,5.82052z" fill="#ffffff" stroke="#000000"/><path d="M136.38005,278.79029l0.00133,5.40456l-2.72458,-2.8515z" fill="#000000" stroke="#000000"/><path d="M132.17515,282.81272v-2.90689h3.47874v2.90689z" fill="#000000" stroke="none"/><path d="M137.63341,283.70697c-0.31803,0.26047 -0.75022,0.26852 -0.75022,0.26852c1.97058,0 2.0252,-5.05902 0.05462,-5.05902c-0.0781,0 0.18221,-0.06264 0.45789,0.07353c0.17846,0.08815 0.33722,0.31315 0.50304,0.51158c0.35821,0.42865 0.47025,1.23423 0.49653,1.8105c0.02473,0.54211 0.00109,1.24265 -0.2975,1.7143c-0.15785,0.24933 -0.27169,0.52279 -0.46435,0.68058z" data-paper-data="{&quot;index&quot;:null}" fill="none" stroke="#000000"/><path d="M138.37607,284.70524c-0.45492,0.37259 -1.07316,0.3841 -1.07316,0.3841c2.81885,0 2.89698,-7.23675 0.07814,-7.23675c-0.11173,0 0.26065,-0.08959 0.65499,0.10519c0.25528,0.12609 0.48238,0.44795 0.71958,0.7318c0.5124,0.61317 0.67267,1.76552 0.71027,2.58986c0.03537,0.77547 0.00156,1.77758 -0.42557,2.45225c-0.2258,0.35667 -0.38864,0.74783 -0.66424,0.97355z" data-paper-data="{&quot;index&quot;:null}" fill="none" stroke="#000000"/><path d="M139.09511,285.78462c-0.5972,0.48911 -1.40877,0.50422 -1.40877,0.50422c3.70036,0 3.80293,-9.49985 0.10257,-9.49985c-0.14666,0 0.34216,-0.11761 0.85983,0.13808c0.33511,0.16552 0.63322,0.58804 0.9446,0.96065c0.67264,0.80492 0.88303,2.31763 0.93238,3.39976c0.04642,1.01798 0.00204,2.33347 -0.55866,3.21913c-0.29642,0.4682 -0.51019,0.9817 -0.87197,1.278z" data-paper-data="{&quot;index&quot;:null}" fill="none" stroke="#000000"/></g><g stroke="#000000" stroke-width="0.5"><path d="M161.62157,281.57102c0,3.47256 -2.86183,6.28762 -6.39207,6.28762c-3.53024,0 -6.39207,-2.81506 -6.39207,-6.28762c0,-3.47256 2.86183,-6.28762 6.39207,-6.28762c3.53024,0 6.39207,2.81506 6.39207,6.28762z" fill="#9966ff" stroke-linecap="butt"/><path d="M155.25993,287.81724c-0.50674,-0.00089 -1.34825,-0.00027 -1.44667,-0.34508c-0.07273,-0.25481 0.42212,-1.34186 0.61027,-1.90984c0.43555,-1.31483 0.36477,-0.98709 0.39427,-1.83622c0.02289,-0.65901 -0.35122,-1.78147 -0.1271,-2.09388c0.1952,-0.2721 0.345,-0.49228 0.57816,-0.49187c0.25168,0.00044 0.28749,0.26939 0.50423,0.55554c0.34909,0.46087 0.03244,1.31657 -0.00005,2.06077c-0.03916,0.89694 -0.14742,0.53826 0.05778,1.78837c0.06249,0.38067 0.76638,2.03983 0.54948,2.13957c0,0 -0.75135,0.13329 -1.12037,0.13264z" data-paper-data="{&quot;index&quot;:null}" fill="#0dbd00" stroke-linecap="butt"/><g><path d="M155.89949,281.95977c-0.46612,-0.74784 0.12469,-1.95784 1.3196,-2.70262c1.19492,-0.74478 2.54145,-0.74229 3.00757,0.00554c0.46612,0.74784 -0.12469,1.95784 -1.3196,2.70262c-1.19492,0.74478 -2.54145,0.74229 -3.00757,-0.00554z" data-paper-data="{&quot;index&quot;:null}" fill="#0dbd00" stroke-linecap="butt"/><path d="M155.95383,281.94359l4.23091,-2.65289" fill="none" stroke-linecap="round"/><path d="M158.78968,282.03507l-2.08115,-0.57174l0.50313,-2.14976" fill="none" stroke-linecap="round"/><path d="M159.6816,281.30324l-1.9668,-0.526l0.70896,-1.9668" fill="none" stroke-linecap="round"/><path d="M160.29909,280.2055l-1.34932,-0.13497l0.68609,-1.23722" fill="none" stroke-linecap="round"/></g><g data-paper-data="{&quot;index&quot;:null}"><path d="M151.56289,281.91218c-1.19492,-0.74478 -1.78572,-1.95478 -1.3196,-2.70262c0.46612,-0.74784 1.81265,-0.75032 3.00757,-0.00554c1.19492,0.74478 1.78572,1.95478 1.3196,2.70262c-0.46612,0.74784 -1.81265,0.75032 -3.00757,0.00554z" data-paper-data="{&quot;index&quot;:null}" fill="#0dbd00" stroke-linecap="butt"/><path d="M150.28522,279.23758l4.23091,2.65289" fill="none" stroke-linecap="round"/><path d="M153.25829,279.26044l0.50313,2.14976l-2.08115,0.57174" fill="none" stroke-linecap="round"/><path d="M152.04618,278.75731l0.70896,1.9668l-1.9668,0.526" fill="none" stroke-linecap="round"/><path d="M150.83408,278.78018l0.68609,1.23722l-1.34932,0.13497" fill="none" stroke-linecap="round"/></g></g><g stroke-linecap="butt"><path d="M144.15797,315.25765c0,3.47256 -2.86183,6.28762 -6.39207,6.28762c-3.53024,0 -6.39207,-2.81506 -6.39207,-6.28762c0,-3.47256 2.86183,-6.28762 6.39207,-6.28762c3.53024,0 6.39207,2.81506 6.39207,6.28762z" fill="#b9b9b9" stroke="#000000" stroke-width="0.5"/><text transform="translate(136.60229,319.5782) rotate(-24.04062) scale(0.30629,0.26663) skewX(9.89447)" font-size="40" xml:space="preserve" fill="#ff0000" fill-rule="nonzero" stroke="none" stroke-width="1" stroke-linecap="butt" stroke-linejoin="miter" stroke-miterlimit="10" stroke-dasharray="" stroke-dashoffset="0" font-family="Marker" font-weight="normal" text-anchor="start" style="mix-blend-mode: normal"><tspan x="0" dy="0">!</tspan></text></g><g stroke-width="0.5"><path d="M162.50075,268c0,3.12626 -2.57643,5.66059 -5.75462,5.66059c-3.17819,0 -5.75462,-2.53433 -5.75462,-5.66059c0,-3.12626 2.57643,-5.66059 5.75462,-5.66059c3.17819,0 5.75462,2.53433 5.75462,5.66059z" fill="#9966ff" stroke="#ffffff" stroke-linecap="butt"/><path d="M156.77352,273.62332c-0.45621,-0.0008 -1.2138,-0.00024 -1.3024,-0.31067c-0.06548,-0.2294 0.38002,-1.20804 0.54941,-1.71938c0.39211,-1.18371 0.32839,-0.88866 0.35495,-1.6531c0.02061,-0.59329 -0.31619,-1.60381 -0.11443,-1.88507c0.17573,-0.24497 0.3106,-0.44319 0.5205,-0.44282c0.22658,0.0004 0.25882,0.24253 0.45395,0.50014c0.31428,0.41491 0.02921,1.18527 -0.00004,1.85526c-0.03525,0.8075 -0.13272,0.48458 0.05202,1.61003c0.05625,0.34271 0.68996,1.8364 0.49468,1.9262c0,0 -0.67642,0.12 -1.00864,0.11942z" data-paper-data="{&quot;index&quot;:null}" fill="#0dbd00" stroke="#000000" stroke-linecap="butt"/><g stroke="#000000"><path d="M157.31908,268.31976c-0.41963,-0.67326 0.11225,-1.7626 1.18801,-2.4331c1.07575,-0.6705 2.288,-0.66827 2.70764,0.00499c0.41963,0.67326 -0.11225,1.7626 -1.18801,2.4331c-1.07575,0.6705 -2.288,0.66827 -2.70764,-0.00499z" data-paper-data="{&quot;index&quot;:null}" fill="#0dbd00" stroke-linecap="butt"/><path d="M157.36799,268.3052l3.80898,-2.38833" fill="none" stroke-linecap="round"/><path d="M159.92104,268.38756l-1.87361,-0.51473l0.45296,-1.93537" fill="none" stroke-linecap="round"/><path d="M160.72401,267.72871l-1.77066,-0.47355l0.63826,-1.77066" fill="none" stroke-linecap="round"/><path d="M161.27992,266.74043l-1.21476,-0.12151l0.61767,-1.11384" fill="none" stroke-linecap="round"/></g><g data-paper-data="{&quot;index&quot;:null}" stroke="#000000"><path d="M153.44515,268.30714c-1.07575,-0.6705 -1.60764,-1.75984 -1.18801,-2.4331c0.41963,-0.67326 1.63189,-0.6755 2.70764,-0.00499c1.07575,0.6705 1.60764,1.75984 1.18801,2.4331c-0.41963,0.67326 -1.63189,0.67549 -2.70764,0.00499z" data-paper-data="{&quot;index&quot;:null}" fill="#0dbd00" stroke-linecap="butt"/><path d="M156.10388,268.28759l-3.80898,-2.38833" fill="none" stroke-linecap="round"/><path d="M154.97148,265.91985l0.45296,1.93537l-1.87361,0.51473" fill="none" stroke-linecap="round"/><path d="M153.88026,265.46689l0.63826,1.77066l-1.77066,0.47355" fill="none" stroke-linecap="round"/><path d="M152.78904,265.48748l0.61767,1.11384l-1.21476,0.12151" fill="none" stroke-linecap="round"/></g></g></g></g></svg>