<svg version="1.1" xmlns="http://www.w3.org/2000/svg" xmlns:xlink="http://www.w3.org/1999/xlink" width="228.36679" height="213.84679" viewBox="0,0,228.36679,213.84679"><g transform="translate(-107.09964,-86.08941)"><g data-paper-data="{&quot;isPaintingLayer&quot;:true}" fill-rule="nonzero" stroke-linejoin="miter" stroke-miterlimit="10" stroke-dasharray="" stroke-dashoffset="0" style="mix-blend-mode: normal"><g><path d="M118.23848,265.57015c0,2.95773 -2.43755,5.35546 -5.44441,5.35546c-3.00687,0 -5.44442,-2.39772 -5.44442,-5.35546c0,-2.95773 2.43755,-5.35545 5.44442,-5.35545c3.00687,0 5.44441,2.39771 5.44441,5.35545z" fill="#ffb900" stroke="#000000" stroke-width="0.5" stroke-linecap="butt"/><path d="M109.49385,262.09547c0.3043,-0.3027 0.68659,-0.66114 1.19674,-0.84069c0.62494,-0.21995 0.67749,-0.27532 1.19295,-0.31707c0.13949,-0.0113 0.31288,0.01687 0.54069,-0.00315c0.51922,-0.04566 -0.56384,0.33092 -1.4411,0.74671c-0.51668,0.24489 -0.58606,0.22969 -1.01236,0.7434c-0.54496,0.6567 -0.5746,0.6942 -0.748,1.14938c-0.22586,0.59291 -0.51161,1.09973 -0.64642,1.34319c-0.13009,0.23493 -0.11218,0.2235 -0.16681,-0.13054c-0.00679,-0.04398 0.00184,-0.85417 0.3218,-1.5041c0.42675,-0.86684 0.76251,-1.18713 0.76251,-1.18713z" fill="#ffffff" stroke="#ffffff" stroke-width="0" stroke-linecap="butt"/><path d="M115.57068,265.83337c0,1.80759 -1.38849,3.00974 -2.77661,3.00974c-1.38812,0 -2.79855,-1.07054 -2.79855,-2.87813c0,-1.80759 1.41044,-3.66776 2.79855,-3.66776c1.38811,0 2.77661,1.72856 2.77661,3.53616z" fill="#dcdcdc" stroke="#000000" stroke-width="0.5" stroke-linecap="butt"/><path d="M111.58126,263.29901c0.1015,-0.10645 0.23049,-0.23409 0.42309,-0.32106c0.23593,-0.10654 0.25324,-0.12579 0.45739,-0.17469c0.05525,-0.01324 0.12681,-0.0179 0.21693,-0.03996c0.2054,-0.05026 -0.20379,0.13308 -0.52766,0.31249c-0.19075,0.10568 -0.21964,0.10645 -0.35569,0.28058c-0.17392,0.22261 -0.18326,0.23522 -0.22174,0.37474c-0.05013,0.18175 -0.13021,0.3438 -0.16769,0.42148c-0.03617,0.07495 -0.02976,0.07046 -0.07592,-0.02436c-0.00573,-0.01178 -0.05772,-0.23845 0.0263,-0.44291c0.11207,-0.2727 0.225,-0.38632 0.225,-0.38632z" data-paper-data="{&quot;index&quot;:null}" fill="#ffffff" stroke="#ffffff" stroke-width="0" stroke-linecap="butt"/><path d="M110.10826,265.33408l1.11777,-1.04591" fill="none" stroke="#000000" stroke-width="0.5" stroke-linecap="round"/><path d="M111.22629,264.28428l1.03224,1.88445" data-paper-data="{&quot;index&quot;:null}" fill="none" stroke="#000000" stroke-width="0.5" stroke-linecap="round"/><path d="M113.55141,265.22694l-0.40671,-0.64737" data-paper-data="{&quot;index&quot;:null}" fill="none" stroke="#000000" stroke-width="0.5" stroke-linecap="round"/><path d="M113.5533,265.22544l0.8998,-0.84196" fill="none" stroke="#000000" stroke-width="0.5" stroke-linecap="round"/><path d="M113.13665,264.56533l-0.87871,1.60415" data-paper-data="{&quot;index&quot;:null}" fill="none" stroke="#000000" stroke-width="0.5" stroke-linecap="round"/><path d="M115.55521,265.41291l-1.09722,-1.02668" data-paper-data="{&quot;index&quot;:null}" fill="none" stroke="#000000" stroke-width="0.5" stroke-linecap="round"/></g><g data-paper-data="{&quot;index&quot;:null}" stroke-linecap="butt"><path d="M152.76001,294.38192c0,2.92947 -2.41425,5.30428 -5.39239,5.30428c-2.97813,0 -5.39239,-2.37481 -5.39239,-5.30428c0,-2.92947 2.41425,-5.30428 5.39239,-5.30428c2.97813,0 5.39239,2.37481 5.39239,5.30428z" fill="#ffb900" stroke="#000000" stroke-width="0.5"/><path d="M141.50645,290.52753z" fill="#000000" stroke="none" stroke-width="0"/><path d="M149.60473,291.68042l1.05425,-0.78925l0.2496,1.52559z" fill="#ff0000" stroke="#000000" stroke-width="0.5"/><path d="M148.23223,292.69208l1.05425,-0.78925l0.2496,1.52559z" fill="#ff0000" stroke="#000000" stroke-width="0.5"/><path d="M146.85972,293.6044l1.05425,-0.78925l0.2496,1.52559z" fill="#ff0000" stroke="#000000" stroke-width="0.5"/><path d="M147.81759,294.85332l-0.2496,1.52559l-1.05425,-0.78925z" data-paper-data="{&quot;index&quot;:null}" fill="#ff0000" stroke="#000000" stroke-width="0.5"/><path d="M148.79611,295.76564l-0.2496,1.52559l-1.05425,-0.78925z" data-paper-data="{&quot;index&quot;:null}" fill="#ff0000" stroke="#000000" stroke-width="0.5"/><path d="M149.77468,296.57862l-0.2496,1.52559l-1.05425,-0.78925z" data-paper-data="{&quot;index&quot;:null}" fill="#ff0000" stroke="#000000" stroke-width="0.5"/><g fill="#ff0000" stroke="#000000" stroke-width="0.5"><path d="M143.06274,293.8927l6.05578,-4.44279l1.59105,1.45978l-6.05578,4.44279z"/><path d="M147.90085,299.32172l-5.45455,-4.93929l1.76886,-1.31485l5.45455,4.93929z" data-paper-data="{&quot;index&quot;:null}"/></g></g><g stroke-linecap="butt"><path d="M335.21644,180c0,51.72732 -42.62984,93.66059 -95.21642,93.66059c-52.58657,0 -95.21642,-41.93328 -95.21642,-93.66059c0,-51.72732 42.62984,-93.66059 95.21642,-93.66059c52.58657,0 95.21642,41.93328 95.21642,93.66059z" fill="#ffd25d" stroke="#000000" stroke-width="0.5"/><path d="M136.50645,111.94077z" fill="#000000" stroke="none" stroke-width="0"/><path d="M288.21494,219.11944c0,0 -11.48666,-27.59001 -20.97598,-28.81818c-9.56741,-1.23827 -25.52873,1.75733 -25.52873,1.75733l30.72544,-28.68665c0,0 8.99905,10.95048 11.51585,19.84221c2.72621,9.63158 4.26343,35.9053 4.26343,35.9053z" data-paper-data="{&quot;index&quot;:null}" fill="#ff0000" stroke="#000000" stroke-width="0.5"/><path d="M312.41764,173.01764c0,0 -12.92512,-18.45862 -20.11211,-17.82703c-7.24613,0.6368 -18.51555,5.42652 -18.51555,5.42652l17.98346,-26.09917c0,0 8.3997,6.60753 11.69246,12.74823c3.56673,6.65165 8.95175,25.75145 8.95175,25.75145z" data-paper-data="{&quot;index&quot;:null}" fill="#ff0000" stroke="#000000" stroke-width="0.5"/><path d="M260.61489,229.5624c0,0 -14.56245,-17.19635 -21.66131,-15.90873c-7.15727,1.29823 -17.94029,7.10065 -17.94029,7.10065l15.51577,-27.63752c0,0 8.96994,5.80988 12.81163,11.62295c4.16135,6.29676 11.2742,24.82264 11.2742,24.82264z" data-paper-data="{&quot;index&quot;:null}" fill="#ff0000" stroke="#000000" stroke-width="0.5"/><path d="M234.93992,205.67945c4.93092,-7.26206 11.73298,-11.51048 31.79424,-30.57851c6.97506,-6.62973 9.66536,-15.02599 23.83247,-31.1771c5.23205,-5.96476 15.37437,-12.0761 6.16698,-16.97495c-9.75976,-5.19275 -70.05607,33.32631 -89.05271,29.73169c-24.16819,-4.57321 -28.53182,-54.50883 -28.76848,-46.57106c-0.03204,1.07449 -4.0806,3.06237 -7.28171,5.8564c-1.96875,1.7184 -4.71661,5.64343 -7.23618,7.94675c-2.50361,2.28873 -4.81334,7.02644 -6.6833,10.83327c-2.99999,6.10735 -6.76979,11.9949 -6.49065,14.65096c0.2562,2.43774 -2.75679,7.00848 -4.16436,11.68853c-1.49938,4.98533 -1.382,10.09471 -0.47634,12.88205c1.00058,3.07943 33.11859,30.64118 33.11859,34.16715c0,0 29.33649,11.99019 41.58993,14.29173c11.47854,2.15599 5.63586,-4.94178 13.65152,-16.74691z" fill="#ff6f00" stroke="#000000" stroke-width="0.5"/></g><g stroke-linecap="butt"><path d="M153.41312,273.40375c0,3.09949 -2.55437,5.61213 -5.70535,5.61213c-3.15098,0 -5.70535,-2.51263 -5.70535,-5.61213c0,-3.09949 2.55437,-5.61213 5.70535,-5.61213c3.15098,0 5.70535,2.51263 5.70535,5.61213z" fill="#ffd25d" stroke="#000000" stroke-width="0.5"/><path d="M141.50645,269.32566z" fill="#000000" stroke="none" stroke-width="0"/><path d="M150.5968,275.74778c0,0 -0.68828,-1.65319 -1.25688,-1.72678c-0.57328,-0.0742 -1.52968,0.1053 -1.52968,0.1053l1.84106,-1.7189c0,0 0.53922,0.65615 0.69003,1.18894c0.16335,0.57712 0.25546,2.15144 0.25546,2.15144z" data-paper-data="{&quot;index&quot;:null}" fill="#ff0000" stroke="#000000" stroke-width="0.5"/><path d="M152.04702,272.98537c0,0 -0.77447,-1.10604 -1.20511,-1.06819c-0.43419,0.03816 -1.10945,0.32516 -1.10945,0.32516l1.07757,-1.56386c0,0 0.50331,0.39592 0.70061,0.76387c0.21372,0.39857 0.53639,1.54302 0.53639,1.54302z" data-paper-data="{&quot;index&quot;:null}" fill="#ff0000" stroke="#000000" stroke-width="0.5"/><path d="M148.94301,276.37352c0,0 -0.87258,-1.0304 -1.29794,-0.95325c-0.42886,0.07779 -1.07498,0.42547 -1.07498,0.42547l0.9297,-1.65604c0,0 0.53748,0.34813 0.76767,0.69645c0.24935,0.3773 0.67555,1.48737 0.67555,1.48737z" data-paper-data="{&quot;index&quot;:null}" fill="#ff0000" stroke="#000000" stroke-width="0.5"/><path d="M147.40457,274.94246c0.29546,-0.43514 0.70304,-0.68971 1.90511,-1.83226c0.41794,-0.39725 0.57915,-0.90036 1.42804,-1.86813c0.3135,-0.35741 0.92123,-0.7236 0.36952,-1.01714c-0.5848,-0.31115 -4.19775,1.99691 -5.33602,1.78152c-1.44815,-0.27403 -1.70962,-3.26616 -1.7238,-2.79053c-0.00192,0.06438 -0.24451,0.1835 -0.43632,0.35091c-0.11797,0.10297 -0.28262,0.33815 -0.43359,0.47617c-0.15002,0.13714 -0.28841,0.42102 -0.40046,0.64913c-0.17976,0.36595 -0.40564,0.71873 -0.38892,0.87788c0.01535,0.14607 -0.16519,0.41995 -0.24953,0.70037c-0.08984,0.29872 -0.08281,0.60487 -0.02854,0.77189c0.05995,0.18452 1.98446,1.83601 1.98446,2.04729c0,0 1.75784,0.71845 2.49206,0.85636c0.68779,0.12919 0.3377,-0.29611 0.818,-1.00347z" fill="#ff6f00" stroke="#000000" stroke-width="0.5"/></g></g></g></svg>