<svg version="1.1" xmlns="http://www.w3.org/2000/svg" xmlns:xlink="http://www.w3.org/1999/xlink" width="228.36679" height="213.84679" viewBox="0,0,228.36679,213.84679"><g transform="translate(-107.09965,-86.08941)"><g data-paper-data="{&quot;isPaintingLayer&quot;:true}" fill-rule="nonzero" stroke-linejoin="miter" stroke-miterlimit="10" stroke-dasharray="" stroke-dashoffset="0" style="mix-blend-mode: normal"><path d="M118.23848,265.57015c0,2.95773 -2.43755,5.35546 -5.44441,5.35546c-3.00687,0 -5.44442,-2.39772 -5.44442,-5.35546c0,-2.95773 2.43755,-5.35545 5.44442,-5.35545c3.00687,0 5.44441,2.39771 5.44441,5.35545z" fill="#ffb900" stroke="#000000" stroke-width="0.5" stroke-linecap="butt"/><path d="M113.55141,265.22694l-0.40671,-0.64737" data-paper-data="{&quot;index&quot;:null}" fill="none" stroke="#000000" stroke-width="0.5" stroke-linecap="round"/><g stroke-linecap="butt"><path d="M335.21644,180c0,51.72732 -42.62984,93.66059 -95.21642,93.66059c-52.58657,0 -95.21642,-41.93328 -95.21642,-93.66059c0,-51.72732 42.62984,-93.66059 95.21642,-93.66059c52.58657,0 95.21642,41.93328 95.21642,93.66059z" fill="#ffb900" stroke="#000000" stroke-width="0.5"/><path d="M136.50646,111.94077z" fill="#000000" stroke="none" stroke-width="0"/><path d="M279.50194,132.29804l18.6155,-13.93624l4.40738,26.93828z" fill="#ff0000" stroke="#000000" stroke-width="0.5"/><path d="M255.26686,150.16148l18.6155,-13.93624l4.40738,26.93828z" fill="#ff0000" stroke="#000000" stroke-width="0.5"/><path d="M231.03179,166.2708l18.6155,-13.93624l4.40738,26.93828z" fill="#ff0000" stroke="#000000" stroke-width="0.5"/><path d="M247.94535,188.32373l-4.40738,26.93828l-18.6155,-13.93624z" data-paper-data="{&quot;index&quot;:null}" fill="#ff0000" stroke="#000000" stroke-width="0.5"/><path d="M265.22407,204.43306l-4.40738,26.93828l-18.61551,-13.93624z" data-paper-data="{&quot;index&quot;:null}" fill="#ff0000" stroke="#000000" stroke-width="0.5"/><path d="M282.5028,218.78828l-4.40738,26.93828l-18.6155,-13.93624z" data-paper-data="{&quot;index&quot;:null}" fill="#ff0000" stroke="#000000" stroke-width="0.5"/><g fill="#ff0000" stroke="#000000" stroke-width="0.5"><path d="M163.98635,171.36158l106.93039,-78.44882l28.09411,25.77618l-106.93039,78.44882z"/><path d="M249.41552,267.22479l-96.31399,-87.21589l31.23377,-23.21704l96.31399,87.21589z" data-paper-data="{&quot;index&quot;:null}"/></g></g><path d="M152.76,294.38192c0,2.92947 -2.41425,5.30428 -5.39239,5.30428c-2.97813,0 -5.39239,-2.37481 -5.39239,-5.30428c0,-2.92947 2.41425,-5.30428 5.39239,-5.30428c2.97813,0 5.39239,2.37481 5.39239,5.30428z" fill="#ffb900" stroke="#000000" stroke-width="0.5" stroke-linecap="butt"/><path d="M141.50646,290.52753z" fill="#000000" stroke="none" stroke-width="0" stroke-linecap="butt"/><g fill="#ff0000" stroke="#000000" stroke-width="0.5" stroke-linecap="butt"><g><path d="M143.06273,293.8927l6.05578,-4.44279l1.59105,1.45978l-6.05578,4.44279z"/><path d="M147.90085,299.32172l-5.45455,-4.93929l1.76886,-1.31485l5.45455,4.93929z" data-paper-data="{&quot;index&quot;:null}"/></g><g><g><path d="M149.60472,291.68042l1.05425,-0.78925l0.2496,1.52559z"/><path d="M148.23223,292.69208l1.05425,-0.78925l0.2496,1.52559z"/><path d="M146.85972,293.6044l1.05425,-0.78925l0.2496,1.52559z"/></g><g><path d="M147.81759,294.85332l-0.2496,1.52559l-1.05425,-0.78925z" data-paper-data="{&quot;index&quot;:null}"/><path d="M148.79611,295.76564l-0.2496,1.52559l-1.05425,-0.78925z" data-paper-data="{&quot;index&quot;:null}"/><path d="M149.77468,296.57862l-0.2496,1.52559l-1.05425,-0.78925z" data-paper-data="{&quot;index&quot;:null}"/></g></g></g><g><path d="M109.49385,262.09547c0.3043,-0.3027 0.68659,-0.66114 1.19674,-0.84069c0.62494,-0.21995 0.67749,-0.27532 1.19295,-0.31707c0.13949,-0.0113 0.31288,0.01687 0.54069,-0.00315c0.51922,-0.04566 -0.56384,0.33092 -1.4411,0.74671c-0.51668,0.24489 -0.58606,0.22969 -1.01236,0.7434c-0.54496,0.6567 -0.5746,0.6942 -0.748,1.14938c-0.22586,0.59291 -0.51161,1.09973 -0.64642,1.34319c-0.13009,0.23493 -0.11218,0.2235 -0.16681,-0.13054c-0.00679,-0.04398 0.00184,-0.85417 0.3218,-1.5041c0.42675,-0.86684 0.76251,-1.18713 0.76251,-1.18713z" fill="#ffffff" stroke="#ffffff" stroke-width="0" stroke-linecap="butt"/><path d="M115.57068,265.83337c0,1.80759 -1.38849,3.00974 -2.77661,3.00974c-1.38812,0 -2.79855,-1.07054 -2.79855,-2.87813c0,-1.80759 1.41044,-3.66776 2.79855,-3.66776c1.38811,0 2.77661,1.72856 2.77661,3.53616z" fill="#dcdcdc" stroke="#000000" stroke-width="0.5" stroke-linecap="butt"/><path d="M110.10826,265.33408l1.11777,-1.04591" fill="none" stroke="#000000" stroke-width="0.5" stroke-linecap="round"/><path d="M111.22629,264.28428l1.03224,1.88445" data-paper-data="{&quot;index&quot;:null}" fill="none" stroke="#000000" stroke-width="0.5" stroke-linecap="round"/><path d="M113.5533,265.22544l0.8998,-0.84196" fill="none" stroke="#000000" stroke-width="0.5" stroke-linecap="round"/><path d="M113.13665,264.56533l-0.87871,1.60415" data-paper-data="{&quot;index&quot;:null}" fill="none" stroke="#000000" stroke-width="0.5" stroke-linecap="round"/><path d="M114.45799,264.38623l1.09722,1.02668" data-paper-data="{&quot;index&quot;:null}" fill="none" stroke="#000000" stroke-width="0.5" stroke-linecap="round"/></g></g></g></svg>