<svg version="1.1" xmlns="http://www.w3.org/2000/svg" xmlns:xlink="http://www.w3.org/1999/xlink" width="235.77987" height="149.92503" viewBox="0,0,235.77987,149.92503"><g transform="translate(-132.29577,-112.62952)"><g data-paper-data="{&quot;isPaintingLayer&quot;:true}" fill-rule="nonzero" stroke-linejoin="miter" stroke-miterlimit="10" stroke-dasharray="" stroke-dashoffset="0" style="mix-blend-mode: normal"><text transform="translate(134.83157,136.88369) scale(0.21825,0.23269)" font-size="40" xml:space="preserve" fill="#f0f237" fill-rule="nonzero" stroke="none" stroke-width="1" stroke-linecap="butt" stroke-linejoin="miter" stroke-miterlimit="10" stroke-dasharray="" stroke-dashoffset="0" font-family="Serif" font-weight="normal" text-anchor="start" style="mix-blend-mode: normal"><tspan x="0" dy="0">+500% rewspawn        efficiency</tspan><tspan x="0" dy="46.150000000000006px">+49% chance of player        spawning as male</tspan></text><text transform="translate(135.53211,126.17564) scale(0.21156,0.26824)" font-size="40" xml:space="preserve" fill="#f0f237" fill-rule="nonzero" stroke="none" stroke-width="1" stroke-linecap="butt" stroke-linejoin="miter" stroke-miterlimit="10" stroke-dasharray="" stroke-dashoffset="0" font-family="Pixel" font-weight="normal" text-anchor="start" style="mix-blend-mode: normal"><tspan x="0" dy="0">EUSOCIAL</tspan></text><text transform="translate(135.65831,157.88947) scale(0.21826,0.23269)" font-size="40" xml:space="preserve" fill="#f0f237" fill-rule="nonzero" stroke="none" stroke-width="1" stroke-linecap="butt" stroke-linejoin="miter" stroke-miterlimit="10" stroke-dasharray="" stroke-dashoffset="0" font-family="Serif" font-weight="normal" text-anchor="start" style="mix-blend-mode: normal"><tspan x="0" dy="0">All male players        acquire drone attributes when spawned   </tspan><tspan x="0" dy="46.150000000000006px">All female players        acquire VIP attributes when spawned</tspan><tspan x="0" dy="46.150000000000006px">-100% intelligence        to all players        in party       </tspan><tspan x="0" dy="46.150000000000006px">if all VIP players        in party        receive a game over</tspan></text><text transform="translate(135.4417,207.40915) scale(0.22524,0.2781)" font-size="40" xml:space="preserve" fill="#f0f237" fill-rule="nonzero" stroke="none" stroke-width="1" stroke-linecap="butt" stroke-linejoin="miter" stroke-miterlimit="10" stroke-dasharray="" stroke-dashoffset="0" font-family="Pixel" font-weight="normal" text-anchor="start" style="mix-blend-mode: normal"><tspan x="0" dy="0">WEIGHT BEARER</tspan></text><text transform="translate(134.57154,217.96167) scale(0.21826,0.23269)" font-size="40" xml:space="preserve" fill="#f0f237" fill-rule="nonzero" stroke="none" stroke-width="1" stroke-linecap="butt" stroke-linejoin="miter" stroke-miterlimit="10" stroke-dasharray="" stroke-dashoffset="0" font-family="Serif" font-weight="normal" text-anchor="start" style="mix-blend-mode: normal"><tspan x="0" dy="0">Can carry any object        and player        with ≤ 1000% more mass</tspan></text><path d="M204.40003,129.63114z" fill="#000000" stroke="none" stroke-width="0" stroke-linecap="butt"/><g stroke-linecap="butt"><path d="M202.00016,161.799z" fill="#000000" stroke="none" stroke-width="0"/><path d="M213.37837,165.61659c0,2.90149 -2.3912,5.25362 -5.3409,5.25362c-2.9497,0 -5.34089,-2.35213 -5.34089,-5.25362c0,-2.90149 2.39119,-5.25362 5.34089,-5.25362c2.9497,0 5.3409,2.35213 5.3409,5.25363z" fill="#ffffff" stroke="#000000" stroke-width="0.5"/><path d="M202.23232,161.799z" fill="#000000" stroke="none" stroke-width="0"/><path d="M204.76975,162.14743c0.29852,-0.29694 0.67353,-0.64856 1.17398,-0.8247c0.61306,-0.21578 0.66461,-0.27008 1.17027,-0.31105c0.13684,-0.01109 0.30693,0.01656 0.53041,-0.0031c0.50935,-0.04478 -0.55312,0.32462 -1.4137,0.73251c-0.50687,0.24024 -0.57491,0.22533 -0.99311,0.72927c-0.53459,0.64421 -0.56367,0.68099 -0.73377,1.12752c-0.22156,0.58164 -0.50189,1.07882 -0.63413,1.31766c-0.12761,0.23048 -0.11004,0.21925 -0.16363,-0.12804c-0.00665,-0.04314 0.0018,-0.83793 0.31569,-1.47552c0.41863,-0.85036 0.74801,-1.16455 0.74801,-1.16455z" fill="#ffffff" stroke="#ffffff" stroke-width="0"/><path d="M208.9705,163.34908c0,0.76758 -0.46746,1.38984 -1.0441,1.38984c-0.57664,0 -1.04411,-0.62225 -1.04411,-1.38984c0,-0.76758 0.46746,-1.38984 1.04411,-1.38984c0.57664,0 1.0441,0.62225 1.0441,1.38984z" fill="#000000" stroke="#000000" stroke-width="0"/><path d="M206.63463,165.32956l2.68196,-0.0329l-1.36186,4.67249z" fill="#000000" stroke="#000000" stroke-width="0"/></g><g stroke-linecap="butt"><path d="M195.68272,150.67098z" fill="#000000" stroke="none" stroke-width="0"/><path d="M207.06094,154.48857c0,2.90149 -2.3912,5.25362 -5.3409,5.25362c-2.9497,0 -5.34089,-2.35213 -5.34089,-5.25362c0,-2.90149 2.39119,-5.25362 5.34089,-5.25362c2.9497,0 5.3409,2.35213 5.3409,5.25363z" fill="#ffffff" stroke="#000000" stroke-width="0.5"/><path d="M195.91489,150.67098z" fill="#000000" stroke="none" stroke-width="0"/><path d="M198.45232,151.01939c0.29852,-0.29694 0.67353,-0.64856 1.17398,-0.8247c0.61306,-0.21578 0.6646,-0.27008 1.17027,-0.31105c0.13684,-0.01109 0.30693,0.01656 0.53041,-0.0031c0.50935,-0.04478 -0.55312,0.32462 -1.4137,0.73251c-0.50687,0.24024 -0.57491,0.22533 -0.99311,0.72927c-0.53459,0.64421 -0.56367,0.68099 -0.73377,1.12752c-0.22156,0.58164 -0.50189,1.07882 -0.63413,1.31766c-0.12761,0.23048 -0.11004,0.21925 -0.16363,-0.12804c-0.00665,-0.04314 0.0018,-0.83793 0.31569,-1.47552c0.41863,-0.85036 0.74801,-1.16455 0.74801,-1.16455z" fill="#ffffff" stroke="#ffffff" stroke-width="0"/><path d="M202.65308,152.22105c0,0.76758 -0.46746,1.38984 -1.0441,1.38984c-0.57664,0 -1.04411,-0.62225 -1.04411,-1.38984c0,-0.76758 0.46746,-1.38984 1.04411,-1.38984c0.57664,0 1.0441,0.62225 1.0441,1.38984z" fill="#000000" stroke="#000000" stroke-width="0"/><path d="M200.31719,154.20153l2.68196,-0.0329l-1.36186,4.67249z" fill="#000000" stroke="#000000" stroke-width="0"/></g><g stroke-linecap="butt"><path d="M218.4687,141.50386z" fill="#000000" stroke="none" stroke-width="0"/><path d="M229.84691,145.32143c0,2.90149 -2.3912,5.25362 -5.3409,5.25362c-2.9497,0 -5.34089,-2.35213 -5.34089,-5.25362c0,-2.90149 2.39119,-5.25362 5.34089,-5.25362c2.9497,0 5.3409,2.35213 5.3409,5.25363z" fill="#ffffff" stroke="#000000" stroke-width="0.5"/><path d="M218.70081,141.50386z" fill="#000000" stroke="none" stroke-width="0"/><path d="M221.23825,141.85231c0.29852,-0.29694 0.67353,-0.64856 1.17398,-0.8247c0.61306,-0.21578 0.66461,-0.27008 1.17027,-0.31105c0.13684,-0.01109 0.30693,0.01656 0.53041,-0.0031c0.50935,-0.04478 -0.55312,0.32462 -1.4137,0.73251c-0.50687,0.24024 -0.57491,0.22533 -0.99311,0.72927c-0.53459,0.64421 -0.56367,0.68099 -0.73377,1.12752c-0.22156,0.58164 -0.50189,1.07882 -0.63413,1.31766c-0.12761,0.23048 -0.11004,0.21925 -0.16363,-0.12804c-0.00665,-0.04314 0.00179,-0.83793 0.31568,-1.47552c0.41863,-0.85036 0.74801,-1.16455 0.74801,-1.16455z" fill="#ffffff" stroke="#ffffff" stroke-width="0"/><path d="M225.43904,143.05395c0,0.76758 -0.46746,1.38984 -1.0441,1.38984c-0.57664,0 -1.04411,-0.62225 -1.04411,-1.38984c0,-0.76758 0.46746,-1.38984 1.04411,-1.38984c0.57664,0 1.0441,0.62225 1.0441,1.38984z" fill="#000000" stroke="#000000" stroke-width="0"/><path d="M223.10311,145.03443l2.68196,-0.0329l-1.36186,4.67249z" fill="#000000" stroke="#000000" stroke-width="0"/></g><g><path d="M212.18173,133.94403c0,2.95773 -2.43755,5.35545 -5.44441,5.35545c-3.00686,0 -5.44441,-2.39771 -5.44441,-5.35545c0,-2.95773 2.43755,-5.35545 5.44441,-5.35545c3.00686,0 5.44441,2.39771 5.44441,5.35545z" fill="#ffb900" stroke="#000000" stroke-width="0.5" stroke-linecap="butt"/><path d="M203.4371,130.46935c0.3043,-0.30269 0.68658,-0.66114 1.19674,-0.84069c0.62495,-0.21996 0.67749,-0.27532 1.19296,-0.31708c0.13949,-0.0113 0.31288,0.01688 0.54069,-0.00315c0.51922,-0.04566 -0.56384,0.33091 -1.4411,0.74671c-0.51669,0.24489 -0.58605,0.22969 -1.01235,0.7434c-0.54496,0.6567 -0.5746,0.6942 -0.748,1.14938c-0.22586,0.59291 -0.51161,1.09973 -0.64642,1.34319c-0.13008,0.23494 -0.11218,0.2235 -0.16681,-0.13053c-0.00679,-0.04398 0.00184,-0.85417 0.3218,-1.50411c0.42675,-0.86684 0.76251,-1.18712 0.76251,-1.18712z" fill="#ffffff" stroke="#ffffff" stroke-width="0" stroke-linecap="butt"/><path d="M209.51393,134.20725c0,1.8076 -1.38849,3.00974 -2.77661,3.00974c-1.38812,0 -2.79854,-1.07053 -2.79854,-2.87813c0,-1.8076 1.41043,-3.66776 2.79854,-3.66776c1.38811,0 2.77661,1.72855 2.77661,3.53615z" fill="#dcdcdc" stroke="#000000" stroke-width="0.5" stroke-linecap="butt"/><path d="M205.52451,131.67288c0.1015,-0.10645 0.23049,-0.23409 0.42309,-0.32105c0.23593,-0.10654 0.25324,-0.12579 0.4574,-0.17469c0.05525,-0.01324 0.12681,-0.0179 0.21693,-0.03996c0.2054,-0.05026 -0.20379,0.13308 -0.52766,0.31249c-0.19075,0.10568 -0.21964,0.10645 -0.3557,0.28059c-0.17392,0.22261 -0.18326,0.23522 -0.22174,0.37474c-0.05013,0.18175 -0.13021,0.3438 -0.16769,0.42147c-0.03617,0.07495 -0.02976,0.07046 -0.07592,-0.02436c-0.00573,-0.01178 -0.05771,-0.23845 0.02631,-0.44291c0.11207,-0.2727 0.22499,-0.38632 0.22499,-0.38632z" data-paper-data="{&quot;index&quot;:null}" fill="#ffffff" stroke="#ffffff" stroke-width="0" stroke-linecap="butt"/><path d="M204.05154,133.70797l1.11777,-1.04591" fill="none" stroke="#000000" stroke-width="0.5" stroke-linecap="round"/><path d="M206.2018,134.54259l-1.03225,-1.88445" data-paper-data="{&quot;index&quot;:null}" fill="none" stroke="#000000" stroke-width="0.5" stroke-linecap="round"/><path d="M207.08798,132.95344l0.4067,0.64737" data-paper-data="{&quot;index&quot;:null}" fill="none" stroke="#000000" stroke-width="0.5" stroke-linecap="round"/><path d="M207.49656,133.5993l0.89981,-0.84196" fill="none" stroke="#000000" stroke-width="0.5" stroke-linecap="round"/><path d="M206.20122,134.54335l0.87871,-1.60415" data-paper-data="{&quot;index&quot;:null}" fill="none" stroke="#000000" stroke-width="0.5" stroke-linecap="round"/><path d="M208.40127,132.76011l1.09722,1.02668" data-paper-data="{&quot;index&quot;:null}" fill="none" stroke="#000000" stroke-width="0.5" stroke-linecap="round"/></g><g stroke-linecap="butt"><path d="M264.33961,210.16103z" fill="#000000" stroke="none" stroke-width="0"/><path d="M275.71781,213.97863c0,2.90149 -2.3912,5.25362 -5.3409,5.25362c-2.9497,0 -5.34089,-2.35213 -5.34089,-5.25362c0,-2.90149 2.39119,-5.25362 5.34089,-5.25362c2.9497,0 5.3409,2.35213 5.3409,5.25363z" fill="#ffffff" stroke="#000000" stroke-width="0.5"/><path d="M264.57176,210.16103z" fill="#000000" stroke="none" stroke-width="0"/><path d="M267.1092,210.50946c0.29852,-0.29694 0.67353,-0.64856 1.17398,-0.8247c0.61306,-0.21578 0.66461,-0.27008 1.17027,-0.31105c0.13684,-0.01109 0.30693,0.01656 0.53041,-0.0031c0.50935,-0.04478 -0.55312,0.32462 -1.4137,0.73251c-0.50687,0.24024 -0.57491,0.22533 -0.99311,0.72927c-0.53459,0.64421 -0.56367,0.68099 -0.73377,1.12752c-0.22156,0.58164 -0.50189,1.07882 -0.63414,1.31766c-0.12761,0.23048 -0.11005,0.21925 -0.16363,-0.12804c-0.00665,-0.04314 0.0018,-0.83793 0.31569,-1.47552c0.41863,-0.85036 0.74801,-1.16455 0.74801,-1.16455z" fill="#ffffff" stroke="#ffffff" stroke-width="0"/><path d="M271.30996,211.71112c0,0.76758 -0.46746,1.38984 -1.0441,1.38984c-0.57664,0 -1.04411,-0.62225 -1.04411,-1.38984c0,-0.76758 0.46746,-1.38984 1.04411,-1.38984c0.57664,0 1.0441,0.62225 1.0441,1.38984z" fill="#000000" stroke="#000000" stroke-width="0"/><path d="M268.97407,213.6916l2.68196,-0.0329l-1.36186,4.67249z" fill="#000000" stroke="#000000" stroke-width="0"/></g><g><path d="M210.23769,210.97984z" fill="#000000" stroke="none" stroke-width="0" stroke-linecap="butt"/><path d="M221.52833,214.76805c0,2.87917 -2.3728,5.21319 -5.29979,5.21319c-2.92699,0 -5.29978,-2.33402 -5.29978,-5.21319c0,-2.87917 2.37279,-5.21319 5.29978,-5.21319c2.92699,0 5.29979,2.33403 5.29979,5.21319z" fill="#d9d9d9" stroke="#000000" stroke-width="0.5" stroke-linecap="butt"/><path d="M210.46805,210.97984z" fill="#000000" stroke="none" stroke-width="0" stroke-linecap="butt"/><path d="M213.01598,211.38566c0.29622,-0.29466 0.66835,-0.64358 1.16495,-0.81836c0.60835,-0.21411 0.6595,-0.268 1.16127,-0.30865c0.13578,-0.011 0.30457,0.01643 0.52633,-0.00307c0.50543,-0.04444 -0.54887,0.32212 -1.40283,0.72688c-0.50296,0.23839 -0.57048,0.22358 -0.98547,0.72365c-0.53048,0.63925 -0.55934,0.67576 -0.72813,1.11885c-0.21986,0.57716 -0.49802,1.07051 -0.62924,1.30751c-0.12663,0.2287 -0.1092,0.21757 -0.16239,-0.12706c-0.00661,-0.0428 0.00179,-0.83149 0.31325,-1.46416c0.41541,-0.84382 0.74224,-1.15559 0.74224,-1.15559z" fill="#ffffff" stroke="#ffffff" stroke-width="0" stroke-linecap="butt"/><path d="M213.22908,214.04445l1.64199,-2.00377l1.80897,1.475l1.41934,-1.05755l2.25424,2.19859l-0.77925,1.66981l-2.47689,1.00189l-0.8349,-0.38962l-1.50284,0.66792l-2.47689,-1.39151z" fill="#888888" stroke="#000000" stroke-width="0.5" stroke-linecap="round"/><path d="M214.17529,214.26715l0.86273,-0.89057" fill="none" stroke="#000000" stroke-width="0.5" stroke-linecap="round"/><path d="M214.62057,216.99447l1.39151,-0.8349l1.41934,0.41746" fill="none" stroke="#000000" stroke-width="0.5" stroke-linecap="round"/><path d="M216.34604,215.3803l1.39151,0.44529" fill="none" stroke="#000000" stroke-width="0.5" stroke-linecap="round"/><path d="M218.322,213.65484l-1.11321,0.77925" fill="none" stroke="#000000" stroke-width="0.5" stroke-linecap="round"/><path d="M213.1734,216.15957l0.61227,-0.97405" fill="none" stroke="#000000" stroke-width="0.5" stroke-linecap="round"/></g><g stroke-linecap="butt"><path d="M216.35512,177.23776c0,3.05625 -2.51873,5.53382 -5.62574,5.53382c-3.10701,0 -5.62575,-2.47758 -5.62575,-5.53382c0,-3.05625 2.51874,-5.53382 5.62575,-5.53382c3.10701,0 5.62574,2.47758 5.62574,5.53382z" fill="#000000" stroke="#ffffff" stroke-width="0.5"/><path d="M213.68532,176.34807c0,0.30561 -0.05988,0.63809 -0.27619,1.02757c-0.2341,0.42151 -0.63753,0.89939 -0.96542,1.19641c-0.48872,0.44271 -0.90045,0.52948 -1.61308,0.52948c-0.59445,0 -1.26257,-0.09387 -1.74314,-0.42226c-0.44469,-0.30387 -0.78705,-0.83986 -1.01068,-1.28832c-0.1984,-0.39787 -0.30333,-0.70529 -0.30333,-1.04288c0,-0.50677 0.28672,-1.09195 0.72803,-1.44921c0.19209,-0.1555 0.39451,-0.4578 0.64201,-0.54804c0.45104,-0.16446 1.00478,-0.0476 1.58588,-0.0476c0.50009,0 1.11289,-0.11655 1.52581,0.0351c0.30374,0.11155 0.56106,0.36102 0.77006,0.56454c0.43438,0.42299 0.66005,0.9163 0.66005,1.4452z" fill="#fcfc12" stroke="none" stroke-width="0"/><path d="M210.71504,177.31782l-0.0218,-0.12577c0.01744,-0.14415 0.07375,-0.28217 0.14331,-0.40043c0.14527,-0.07853 0.35977,-0.16902 0.51783,-0.05231c0.13397,0.09892 0.26611,0.43329 0.23848,0.62151c-0.03177,0.21648 -0.27885,0.48769 -0.39439,0.63925c-0.05418,0.07107 -0.14146,0.10991 -0.17478,0.19814c-0.02972,0.0787 0.02133,0.17168 0.02549,0.25823c0.01082,0.22519 0.033,0.45152 0.03331,0.6773c0,0 0,0.14771 -0.12066,0.14771c-0.12066,0 -0.12067,-0.14771 -0.12067,-0.14771c0.00033,-0.21934 -0.02233,-0.44008 -0.03284,-0.65894c-0.00549,-0.11428 -0.04485,-0.27949 -0.00759,-0.38964c0.02382,-0.0704 0.08264,-0.11402 0.12539,-0.1694c0.10514,-0.13619 0.20851,-0.27133 0.30687,-0.41528c0.00909,-0.01331 0.11543,-0.15978 0.12323,-0.19761c0.01488,-0.0722 -0.06134,-0.17321 -0.08122,-0.21286c-0.06652,-0.13265 -0.1657,-0.12696 -0.28713,-0.06827c-0.03399,0.05945 -0.0499,0.13467 -0.05516,0.20694l0.01128,-0.00429c0,0 0.03816,0.14013 -0.07632,0.18684c-0.11447,0.04671 -0.15263,-0.09342 -0.15263,-0.09342z" data-paper-data="{&quot;index&quot;:null}" fill="#f1b21e" stroke="none" stroke-width="0.5"/><path d="M210.56349,177.42321c-0.11447,-0.04671 -0.07631,-0.18684 -0.07631,-0.18684l0.01128,0.00429c-0.00526,-0.07227 -0.02117,-0.1475 -0.05516,-0.20694c-0.12143,-0.05868 -0.22061,-0.06438 -0.28713,0.06827c-0.01988,0.03965 -0.0961,0.14066 -0.08122,0.21286c0.0078,0.03783 0.11414,0.18429 0.12323,0.1976c0.09836,0.14394 0.20173,0.27909 0.30687,0.41528c0.04275,0.05538 0.10157,0.099 0.12539,0.16939c0.03727,0.11014 -0.0021,0.27536 -0.00759,0.38964c-0.01052,0.21886 -0.03318,0.4396 -0.03284,0.65894c0,0 0,0.14771 -0.12067,0.14771c-0.12066,0 -0.12066,-0.14771 -0.12066,-0.14771c0.00031,-0.22577 0.02249,-0.45211 0.03331,-0.6773c0.00416,-0.08655 0.05521,-0.17953 0.02549,-0.25823c-0.03332,-0.08823 -0.12061,-0.12708 -0.17478,-0.19814c-0.11554,-0.15156 -0.36262,-0.42277 -0.39439,-0.63925c-0.02763,-0.18822 0.10451,-0.52259 0.23848,-0.62151c0.15806,-0.11671 0.37256,-0.02622 0.51783,0.05231c0.06956,0.11826 0.12587,0.25628 0.14331,0.40044l-0.0218,0.12577c0,0 -0.03816,0.14013 -0.15263,0.09342z" data-paper-data="{&quot;index&quot;:null}" fill="#f1b21e" stroke="none" stroke-width="0.5"/><g stroke="none" stroke-width="0"><path d="M209.29191,180.21508v-1.45771c0,0 0.94481,0.08098 1.41722,0.08098c0.47241,0 1.41721,-0.08098 1.41721,-0.08098v1.45771z" fill="#b5bad5"/><path d="M209.31215,179.3915v-0.31022c0,0 0.86164,0.06204 1.31599,0.06204c0.48805,0 1.51845,-0.06204 1.51845,-0.06204v0.31022c0,0 -0.99587,0.07445 -1.47796,0.07445c-0.46185,0 -1.35648,-0.07445 -1.35648,-0.07445z" fill="#6e7182"/><path d="M209.3039,179.97039v-0.31022c0,0 0.86164,0.06205 1.31599,0.06205c0.48805,0 1.51845,-0.06205 1.51845,-0.06205v0.31022c0,0 -0.99587,0.07445 -1.47796,0.07445c-0.46185,0 -1.35648,-0.07445 -1.35648,-0.07445z" fill="#6e7182"/></g></g><g stroke-linecap="butt"><path d="M199.19109,184.17053z" fill="#000000" stroke="none" stroke-width="0"/><path d="M210.56928,187.98812c0,2.90149 -2.3912,5.25362 -5.3409,5.25362c-2.9497,0 -5.34089,-2.35213 -5.34089,-5.25362c0,-2.90149 2.39119,-5.25362 5.34089,-5.25362c2.9497,0 5.3409,2.35213 5.3409,5.25363z" fill="#9966ff" stroke="#000000" stroke-width="0.5"/><path d="M199.42322,184.17053z" fill="#000000" stroke="none" stroke-width="0"/><path d="M201.96065,184.51894c0.29852,-0.29694 0.67353,-0.64856 1.17398,-0.8247c0.61306,-0.21578 0.66461,-0.27008 1.17027,-0.31105c0.13684,-0.01109 0.30693,0.01656 0.53041,-0.0031c0.50935,-0.04478 -0.55312,0.32462 -1.4137,0.73251c-0.50687,0.24024 -0.57491,0.22533 -0.99311,0.72927c-0.53459,0.64421 -0.56367,0.68099 -0.73377,1.12752c-0.22156,0.58164 -0.50189,1.07882 -0.63413,1.31766c-0.12761,0.23048 -0.11004,0.21925 -0.16363,-0.12804c-0.00665,-0.04314 0.0018,-0.83793 0.31569,-1.47552c0.41863,-0.85036 0.74801,-1.16455 0.74801,-1.16455z" fill="#ffffff" stroke="#ffffff" stroke-width="0"/><path d="M206.16141,185.72063c0,0.76758 -0.46746,1.38984 -1.0441,1.38984c-0.57664,0 -1.04411,-0.62225 -1.04411,-1.38984c0,-0.76758 0.46746,-1.38984 1.04411,-1.38984c0.57664,0 1.0441,0.62225 1.0441,1.38984z" fill="#000000" stroke="#000000" stroke-width="0"/><path d="M203.82553,187.70111l2.68196,-0.0329l-1.36186,4.67249z" fill="#000000" stroke="#000000" stroke-width="0"/></g><g stroke-linecap="butt"><path d="M266.93345,172.89985z" fill="#000000" stroke="none" stroke-width="0"/><path d="M278.31165,176.71743c0,2.90149 -2.3912,5.25362 -5.3409,5.25362c-2.9497,0 -5.34089,-2.35213 -5.34089,-5.25362c0,-2.90149 2.39119,-5.25362 5.34089,-5.25362c2.9497,0 5.3409,2.35213 5.3409,5.25363z" fill="#ffffff" stroke="#000000" stroke-width="0.5"/><path d="M267.16561,172.89985z" fill="#000000" stroke="none" stroke-width="0"/><path d="M269.70304,173.24827c0.29852,-0.29694 0.67353,-0.64856 1.17398,-0.8247c0.61306,-0.21578 0.66461,-0.27008 1.17027,-0.31105c0.13684,-0.01109 0.30693,0.01656 0.53041,-0.0031c0.50935,-0.04478 -0.55312,0.32462 -1.4137,0.73251c-0.50687,0.24024 -0.57491,0.22533 -0.99311,0.72927c-0.53459,0.64421 -0.56367,0.68099 -0.73377,1.12752c-0.22156,0.58164 -0.50189,1.07882 -0.63413,1.31766c-0.12761,0.23048 -0.11004,0.21925 -0.16363,-0.12804c-0.00665,-0.04314 0.0018,-0.83793 0.31569,-1.47552c0.41863,-0.85036 0.74801,-1.16455 0.74801,-1.16455z" fill="#ffffff" stroke="#ffffff" stroke-width="0"/><path d="M273.90379,174.44994c0,0.76758 -0.46746,1.38984 -1.0441,1.38984c-0.57664,0 -1.04411,-0.62225 -1.04411,-1.38984c0,-0.76758 0.46746,-1.38984 1.04411,-1.38984c0.57664,0 1.0441,0.62225 1.0441,1.38984z" fill="#000000" stroke="#000000" stroke-width="0"/><path d="M271.56791,176.43042l2.68196,-0.0329l-1.36186,4.67249z" fill="#000000" stroke="#000000" stroke-width="0"/></g><g stroke-linecap="butt"><path d="M309.54465,172.56229z" fill="#000000" stroke="none" stroke-width="0"/><path d="M320.92251,176.5003c0,2.993 -2.46661,5.41931 -5.50932,5.41931c-3.04272,0 -5.50933,-2.4263 -5.50933,-5.41931c0,-2.993 2.46661,-5.41931 5.50933,-5.41931c3.04272,0 5.50932,2.4263 5.50932,5.41931z" fill="#ffffff" stroke="#000000" stroke-width="0.5"/><path d="M309.78411,172.56229z" fill="#000000" stroke="none" stroke-width="0"/><g fill="#000000" stroke="#000000" stroke-width="0"><path d="M313.40952,174.21718c0,0.66288 -0.4037,1.20025 -0.90168,1.20025c-0.49799,0 -0.90168,-0.53737 -0.90168,-1.20025c0,-0.66288 0.4037,-1.20025 0.90168,-1.20025c0.49799,0 0.90168,0.53737 0.90168,1.20025z"/><path d="M311.39223,175.92749l2.31611,-0.02841l-1.17609,4.03511z"/></g><g fill="#000000" stroke="#000000" stroke-width="0"><path d="M319.23616,174.09977c0,0.66288 -0.4037,1.20025 -0.90168,1.20025c-0.49799,0 -0.90168,-0.53737 -0.90168,-1.20025c0,-0.66288 0.4037,-1.20025 0.90168,-1.20025c0.49799,0 0.90168,0.53737 0.90168,1.20025z"/><path d="M317.21891,175.8101l2.3161,-0.02841l-1.17609,4.03511z"/></g><g fill="#000000" stroke="#000000" stroke-width="0"><path d="M316.43946,173.8027c0,0.7918 -0.48221,1.43367 -1.07703,1.43367c-0.59483,0 -1.07704,-0.64187 -1.07704,-1.43367c0,-0.7918 0.48221,-1.43367 1.07704,-1.43367c0.59483,0 1.07703,0.64188 1.07703,1.43367z"/><path d="M314.0299,175.84565l2.76654,-0.03394l-1.40481,4.81984z"/></g></g><g stroke-linecap="butt"><path d="M242.69101,185.13185z" fill="#000000" stroke="none" stroke-width="0"/><path d="M254.06883,189.06985c0,2.993 -2.46661,5.41931 -5.50932,5.41931c-3.04272,0 -5.50933,-2.4263 -5.50933,-5.41931c0,-2.993 2.46661,-5.41931 5.50933,-5.41931c3.04272,0 5.50932,2.4263 5.50932,5.41931z" fill="#ffffff" stroke="#000000" stroke-width="0.5"/><path d="M242.93047,185.13185z" fill="#000000" stroke="none" stroke-width="0"/><g fill="#000000" stroke="#000000" stroke-width="0"><path d="M246.55584,186.78673c0,0.66288 -0.4037,1.20025 -0.90168,1.20025c-0.49799,0 -0.90168,-0.53737 -0.90168,-1.20025c0,-0.66288 0.4037,-1.20025 0.90168,-1.20025c0.49799,0 0.90168,0.53737 0.90168,1.20025z"/><path d="M244.5386,188.49706l2.31611,-0.02841l-1.17609,4.03511z"/></g><g fill="#000000" stroke="#000000" stroke-width="0"><path d="M252.38253,186.66934c0,0.66288 -0.4037,1.20025 -0.90168,1.20025c-0.49799,0 -0.90168,-0.53737 -0.90168,-1.20025c0,-0.66288 0.4037,-1.20025 0.90168,-1.20025c0.49799,0 0.90168,0.53737 0.90168,1.20025z"/><path d="M250.36527,188.37965l2.31611,-0.02841l-1.17609,4.03511z"/></g><g fill="#000000" stroke="#000000" stroke-width="0"><path d="M249.58582,186.37227c0,0.7918 -0.48221,1.43367 -1.07703,1.43367c-0.59483,0 -1.07704,-0.64187 -1.07704,-1.43367c0,-0.7918 0.48221,-1.43367 1.07704,-1.43367c0.59483,0 1.07703,0.64188 1.07703,1.43367z"/><path d="M247.17626,188.4152l2.76654,-0.03394l-1.40481,4.81984z"/></g></g><g><g stroke-linecap="butt"><path d="M328.0556,184.32443z" fill="#000000" stroke="none" stroke-width="0"/><path d="M339.43382,188.14201c0,2.90149 -2.3912,5.25362 -5.3409,5.25362c-2.9497,0 -5.34089,-2.35213 -5.34089,-5.25362c0,-2.90149 2.39119,-5.25362 5.34089,-5.25362c2.9497,0 5.3409,2.35213 5.3409,5.25363z" fill="#ffffff" stroke="#000000" stroke-width="0.5"/><path d="M328.28774,184.32443z" fill="#000000" stroke="none" stroke-width="0"/><path d="M330.82518,184.67286c0.29852,-0.29694 0.67352,-0.64856 1.17397,-0.8247c0.61306,-0.21578 0.66462,-0.27008 1.17028,-0.31105c0.13684,-0.01109 0.30693,0.01656 0.53041,-0.0031c0.50935,-0.04478 -0.55312,0.32462 -1.4137,0.73251c-0.50687,0.24024 -0.57491,0.22533 -0.99311,0.72927c-0.53459,0.64421 -0.56367,0.68099 -0.73377,1.12752c-0.22156,0.58164 -0.50189,1.07882 -0.63414,1.31766c-0.12761,0.23048 -0.11005,0.21925 -0.16363,-0.12804c-0.00665,-0.04314 0.0018,-0.83793 0.31569,-1.47552c0.41863,-0.85036 0.74801,-1.16455 0.74801,-1.16455z" fill="#ffffff" stroke="#ffffff" stroke-width="0"/><path d="M335.02594,185.87452c0,0.76758 -0.46746,1.38984 -1.0441,1.38984c-0.57664,0 -1.04411,-0.62225 -1.04411,-1.38984c0,-0.76758 0.46746,-1.38984 1.04411,-1.38984c0.57664,0 1.0441,0.62225 1.0441,1.38984z" fill="#000000" stroke="#000000" stroke-width="0"/><path d="M332.69003,187.855l2.68196,-0.0329l-1.36186,4.67249z" fill="#000000" stroke="#000000" stroke-width="0"/></g><path d="M337.02964,191.22477l-5.92308,-5.92308" fill="none" stroke="#ff0000" stroke-width="1" stroke-linecap="round"/><path d="M331.18348,191.14785l5.92309,-5.92308" data-paper-data="{&quot;index&quot;:null}" fill="none" stroke="#ff0000" stroke-width="1" stroke-linecap="round"/></g><text transform="translate(134.44171,235.57583) scale(0.22524,0.27809)" font-size="40" xml:space="preserve" fill="#f0f237" fill-rule="nonzero" stroke="none" stroke-width="1" stroke-linecap="butt" stroke-linejoin="miter" stroke-miterlimit="10" stroke-dasharray="" stroke-dashoffset="0" font-family="Pixel" font-weight="normal" text-anchor="start" style="mix-blend-mode: normal"><tspan x="0" dy="0">SEGMENTED EXOSKELETON</tspan></text><text transform="translate(133.07154,246.62835) scale(0.21826,0.23269)" font-size="40" xml:space="preserve" fill="#f0f237" fill-rule="nonzero" stroke="none" stroke-width="1" stroke-linecap="butt" stroke-linejoin="miter" stroke-miterlimit="10" stroke-dasharray="" stroke-dashoffset="0" font-family="Serif" font-weight="normal" text-anchor="start" style="mix-blend-mode: normal"><tspan x="0" dy="0">+25% protection        against slash-type and stab-type damage</tspan></text><g stroke-linecap="butt"><path d="M352.50645,240.19342z" fill="#000000" stroke="none" stroke-width="0"/><path d="M352.72313,240.19342z" fill="#000000" stroke="none" stroke-width="0"/><path d="M362.91032,243.75681c0,2.70828 -2.23198,4.90379 -4.98526,4.90379c-2.75327,0 -4.98524,-2.1955 -4.98524,-4.90379c0,-2.70828 2.23197,-4.9038 4.98524,-4.9038c2.75327,0 4.98526,2.19551 4.98526,4.9038z" fill="#000000" stroke="#ffffff" stroke-width="0.5"/><path d="M356.71462,240.58659c0.57224,-0.2014 0.568,-0.40916 1.03999,-0.44741c0.12773,-0.01034 0.46975,-0.19398 0.67834,-0.21232c0.47543,-0.0418 -0.56865,0.85275 -1.37193,1.23349c-0.47312,0.22424 -0.53662,0.21031 -0.92697,0.6807c-0.499,0.60131 -0.52615,0.63566 -0.68492,1.05244c-0.20584,0.54034 -1.12766,1.91745 -1.21585,1.346c-0.00622,-0.04027 0.31583,-1.12245 0.6088,-1.71758c0.39076,-0.79374 0.88145,-1.2179 0.88145,-1.2179z" fill="#ff5402" stroke="#ffffff" stroke-width="0"/><path d="M359.98693,243.36151c0.57224,-0.2014 0.568,-0.40916 1.03999,-0.44741c0.12773,-0.01034 0.46975,-0.19398 0.67834,-0.21232c0.47543,-0.0418 -0.56865,0.85275 -1.37193,1.23349c-0.47312,0.22424 -0.53662,0.21031 -0.92697,0.6807c-0.499,0.60131 -0.52613,0.63566 -0.68491,1.05244c-0.20584,0.54034 -1.12767,1.91745 -1.21586,1.346c-0.00622,-0.04027 0.31583,-1.12246 0.6088,-1.71759c0.39076,-0.79374 0.88145,-1.2179 0.88145,-1.2179z" fill="#ff5402" stroke="#ffffff" stroke-width="0"/><path d="M358.5972,241.40904c0.84338,-0.29684 0.83713,-0.60305 1.53277,-0.65941c0.18825,-0.01525 0.69232,-0.28588 0.99976,-0.31292c0.7007,-0.06161 -0.83808,1.25681 -2.02197,1.81794c-0.69728,0.3305 -0.7909,0.30997 -1.3662,1.00325c-0.73544,0.88623 -0.77545,0.93684 -1.00944,1.55111c-0.30336,0.79637 -1.66199,2.82599 -1.79197,1.98377c-0.00916,-0.05934 0.46547,-1.6543 0.89727,-2.53141c0.57591,-1.16983 1.2991,-1.79497 1.2991,-1.79497z" fill="#ff5402" stroke="#ffffff" stroke-width="0"/></g><text transform="translate(132.4049,258.29502) scale(0.21826,0.23269)" font-size="40" xml:space="preserve" fill="#f0f237" fill-rule="nonzero" stroke="none" stroke-width="1" stroke-linecap="butt" stroke-linejoin="miter" stroke-miterlimit="10" stroke-dasharray="" stroke-dashoffset="0" font-family="Serif" font-weight="normal" text-anchor="start" style="mix-blend-mode: normal"><tspan x="0" dy="0">+25% resistance        to to all status effects</tspan></text><path d="M282.50645,252.52675z" fill="#000000" stroke="none" stroke-width="0" stroke-linecap="butt"/><path d="M282.72313,252.52675z" fill="#000000" stroke="none" stroke-width="0" stroke-linecap="butt"/><g stroke-linecap="butt"><path d="M205.22595,256.49817c0,3.20677 -2.64279,5.80638 -5.90283,5.80638c-3.26004,0 -5.90283,-2.5996 -5.90283,-5.80638c0,-3.20677 2.64279,-5.80638 5.90283,-5.80638c3.26004,0 5.90283,2.5996 5.90283,5.80638z" fill="#000000" stroke="#ffffff" stroke-width="0.5"/><path d="M195.42341,258.12921v-5.04742c0,0 2.55671,0.5296 3.82066,0.5296c1.24504,0 3.70718,-0.5296 3.70718,-0.5296v5.04742c0,0 -2.65128,2.85871 -3.89633,2.85871c-1.26396,0 -3.63152,-2.85871 -3.63152,-2.85871z" fill="#ebff00" stroke="#616161" stroke-width="0.5"/><path d="M195.66721,255.52383v-1.57198l3.15237,0.69351v1.80316z" data-paper-data="{&quot;index&quot;:null}" fill="#9c9c9c" stroke="#828282" stroke-width="0"/><path d="M195.66102,257.98267v-1.57198l3.26585,0.69351v1.80316z" data-paper-data="{&quot;index&quot;:null}" fill="#9c9c9c" stroke="#828282" stroke-width="0"/><path d="M199.52987,256.41069v-1.80316l3.19019,-0.69352v1.57198z" data-paper-data="{&quot;index&quot;:null}" fill="#9c9c9c" stroke="#828282" stroke-width="0"/><path d="M199.5615,258.90736v-1.80316l3.15237,-0.69351v1.57198z" data-paper-data="{&quot;index&quot;:null}" fill="#9c9c9c" stroke="#828282" stroke-width="0"/></g><g stroke-linecap="butt"><path d="M205.31899,243.24269c0,3.20677 -2.64279,5.80638 -5.90283,5.80638c-3.26004,0 -5.90283,-2.59961 -5.90283,-5.80638c0,-3.20677 2.64279,-5.80638 5.90283,-5.80638c3.26004,0 5.90283,2.5996 5.90283,5.80638z" fill="#000000" stroke="#ffffff" stroke-width="0.5"/><path d="M195.51646,245.03161v-5.04741c0,0 2.55672,0.5296 3.82067,0.5296c1.24504,0 3.70718,-0.5296 3.70718,-0.5296v5.04741c0,0 -2.65128,2.85872 -3.89633,2.85872c-1.26396,0 -3.63152,-2.85872 -3.63152,-2.85872z" fill="#2aa9ff" stroke="#616161" stroke-width="0.5"/><path d="M195.81908,242.42624v-1.57198l3.15237,0.69352v1.80316z" data-paper-data="{&quot;index&quot;:null}" fill="#9c9c9c" stroke="#828282" stroke-width="0"/><path d="M195.81908,244.88508v-1.57199l3.26585,0.69352v1.80316z" data-paper-data="{&quot;index&quot;:null}" fill="#9c9c9c" stroke="#828282" stroke-width="0"/><path d="M199.56409,243.3131v-1.80315l3.19019,-0.69352v1.57198z" data-paper-data="{&quot;index&quot;:null}" fill="#9c9c9c" stroke="#828282" stroke-width="0"/><path d="M199.60192,245.80977v-1.80316l3.15237,-0.69352v1.57199z" data-paper-data="{&quot;index&quot;:null}" fill="#9c9c9c" stroke="#828282" stroke-width="0"/></g><g stroke-linecap="butt"><path d="M292.91032,256.09014c0,2.70828 -2.23198,4.90379 -4.98526,4.90379c-2.75327,0 -4.98524,-2.1955 -4.98524,-4.90379c0,-2.70828 2.23197,-4.9038 4.98524,-4.9038c2.75327,0 4.98526,2.19551 4.98526,4.9038z" fill="#000000" stroke="#ffffff" stroke-width="0.5"/><path d="M287.81467,259.89841c-1.2139,-0.11804 -1.81372,-1.15162 -1.68789,-2.44568c0.0705,-0.72498 0.6111,-2.47068 0.90541,-3.59985c0.74278,-2.84971 0.83959,-1.20503 1.30847,-0.22466c1.4243,2.97804 1.79838,2.90192 1.67254,4.19599c0,0 0.04067,0.77999 -0.47165,1.70385c-0.25353,0.4572 -1.72688,0.37035 -1.72688,0.37035z" fill="#00d039" stroke="none" stroke-width="0"/><path d="M287.09576,259.06093c0,0 -0.16967,-0.12316 -0.38533,-0.45649c-0.16169,-0.24992 -0.16605,-0.56147 -0.16262,-0.57838c0.02761,-0.13614 0.01856,-0.14053 0.08429,-0.05019c0.06812,0.09362 0.21253,0.28851 0.32666,0.5165c0.08763,0.17503 0.1026,0.18945 0.37799,0.44198c0.21543,0.19754 0.25048,0.19169 0.51158,0.28587c0.44331,0.15989 0.99063,0.30469 0.72825,0.28713c-0.11512,-0.0077 -0.20274,0.00313 -0.27323,-0.00122c-0.26049,-0.01606 -0.28704,-0.03734 -0.60285,-0.12192c-0.2578,-0.06905 -0.45098,-0.20688 -0.60476,-0.32328z" data-paper-data="{&quot;index&quot;:null}" fill="#ffffff" stroke="#ffffff" stroke-width="0"/></g></g></g></svg>